<?xml version="1.0" encoding="UTF-8" standalone="no"?>
<!-- Creator: CorelDRAW X6 -->

<svg
   xmlns:dc="http://purl.org/dc/elements/1.1/"
   xmlns:cc="http://creativecommons.org/ns#"
   xmlns:rdf="http://www.w3.org/1999/02/22-rdf-syntax-ns#"
   xmlns:svg="http://www.w3.org/2000/svg"
   xmlns="http://www.w3.org/2000/svg"
   xmlns:sodipodi="http://sodipodi.sourceforge.net/DTD/sodipodi-0.dtd"
   xmlns:inkscape="http://www.inkscape.org/namespaces/inkscape"
   xml:space="preserve"
   width="64"
   height="64"
   version="1.1"
   style="fill-rule:evenodd"
   viewBox="0 0 506.8806 506.73838"
   id="svg5835"
   inkscape:version="0.49 r12742"
   sodipodi:docname="escudo64.svg"
   inkscape:export-filename="/home/ernesto/Documents/Muni/Escudo/escudo320.png"
   inkscape:export-xdpi="159.88637"
   inkscape:export-ydpi="159.88637"><title
     id="title3807">Escudo del Municpio de Río Grande</title><metadata
     id="metadata6373"><rdf:RDF><cc:Work
         rdf:about=""><dc:format>image/svg+xml</dc:format><dc:type
           rdf:resource="http://purl.org/dc/dcmitype/StillImage" /><dc:title>Escudo del Municpio de Río Grande</dc:title><dc:creator><cc:Agent><dc:title>Municpio de Río Grande</dc:title></cc:Agent></dc:creator><dc:subject><rdf:Bag><rdf:li>escudo</rdf:li><rdf:li>municipio</rdf:li><rdf:li>río grande</rdf:li></rdf:Bag></dc:subject></cc:Work></rdf:RDF></metadata><sodipodi:namedview
     pagecolor="#ffffff"
     bordercolor="#666666"
     borderopacity="1"
     objecttolerance="10"
     gridtolerance="10"
     guidetolerance="10"
     inkscape:pageopacity="0"
     inkscape:pageshadow="2"
     inkscape:window-width="1366"
     inkscape:window-height="703"
     id="namedview6371"
     showgrid="false"
     inkscape:zoom="1.3785247"
     inkscape:cx="-107.39911"
     inkscape:cy="104.55273"
     inkscape:window-x="0"
     inkscape:window-y="27"
     inkscape:window-maximized="1"
     inkscape:current-layer="svg5835" /><defs
     id="defs5837"><style
       type="text/css"
       id="style5839">
    .fil23 {fill:#0069AC;fill-rule:nonzero}
    .fil0 {fill:#2B2A29;fill-rule:nonzero}
    .fil18 {fill:#369DC3;fill-rule:nonzero}
    .fil15 {fill:#3BB7E4;fill-rule:nonzero}
    .fil17 {fill:#3FA5C5;fill-rule:nonzero}
    .fil8 {fill:#47C0E7;fill-rule:nonzero}
    .fil22 {fill:#95C12B;fill-rule:nonzero}
    .fil19 {fill:#9D9E9E;fill-rule:nonzero}
    .fil14 {fill:#B18050;fill-rule:nonzero}
    .fil3 {fill:#B2B3B3;fill-rule:nonzero}
    .fil16 {fill:#D9DADA;fill-rule:nonzero}
    .fil24 {fill:#00619F;fill-rule:nonzero}
    .fil9 {fill:#009846;fill-rule:nonzero}
    .fil1 {fill:#FEFEFE;fill-rule:nonzero}
    .fil11 {fill:#2A8B23;fill-rule:nonzero}
    .fil5 {fill:#537BD1;fill-rule:nonzero}
    .fil6 {fill:#6D5809;fill-rule:nonzero}
    .fil13 {fill:#6F0579;fill-rule:nonzero}
    .fil21 {fill:#781A1A;fill-rule:nonzero}
    .fil10 {fill:#B3BA06;fill-rule:nonzero}
    .fil7 {fill:#B6A883;fill-rule:nonzero}
    .fil12 {fill:#B877C1;fill-rule:nonzero}
    .fil2 {fill:#E08600;fill-rule:nonzero}
    .fil20 {fill:#F02137;fill-rule:nonzero}
    .fil4 {fill:#F2E810;fill-rule:nonzero}
   </style></defs><g
     id="g3536"
     transform="matrix(0.23209438,0,0,0.23209438,14.475633,14.471577)"><g
       transform="translate(337.05425,-3.3144308)"
       id="g3526"><g
         id="g3257"><g
           transform="translate(0,7.6267808)"
           id="g7196"><g
             id="Layer_x0020_1"><metadata
               id="CorelCorpID_0Corel-Layer" /><path
               style="fill:#2b2a29;fill-rule:nonzero"
               inkscape:connector-curvature="0"
               class="fil0"
               d="m 1216,1543 c 0,0 0,0 0,0 0,0 0,0 0,0 l 0,0 z m -1095,133 20,16 -8,-17 224,99 -257,-90 20,-9 z m 35,-30 0,13 -16,-7 16,-6 z m 0,-76 0,19 -22,-13 22,-6 z m 1214,-45 c 14,-14 21,-36 20,-62 0,-3 -2,-7 -10,-7 -5,0 -16,0 -25,1 3,-3 7,-7 9,-11 7,-12 13,-31 0,-60 0,0 0,0 0,-1 4,-8 8,-25 -9,-46 0,0 2,2 -1,-2 -3,-4 -21,14 -21,14 -4,4 -10,9 -13,17 -4,10 -5,22 -1,31 -5,4 -10,8 -14,14 -2,4 -4,7 -6,11 -7,-9 -17,-19 -35,-26 l -2,0 c -4,0 -5,0 -12,17 -2,6 -6,14 -6,15 -4,12 -6,22 -5,32 1,8 3,16 7,22 1,3 3,5 5,8 l -2,11 c -1,-2 -1,-4 -3,-5 -9,-13 -27,-17 -40,-9 -1,1 -3,2 -4,3 -1,-144 -1,-321 -1,-459 25,13 62,29 96,32 l -28,-100 65,-46 c -57,-14 -108,-36 -133,-48 0,-15 0,-28 0,-37 10,8 19,15 26,23 l 0,-190 c -49,-32 -116,-63 -199,-86 l 148,-21 51,-7 0,0 -51,-7 -171,-24 c 26,-16 61,-29 82,-31 19,-2 45,0 69,-7 10,-3 23,-11 33,-19 15,-11 26,-23 26,-23 -13,6 -24,9 -35,10 -22,3 -43,-3 -76,-10 -25,-5 -55,8 -76,13 -16,5 -29,4 -39,2 l 150,-89 44,-26 -50,13 -167,43 c 18,-24 45,-50 64,-61 17,-9 41,-18 60,-33 9,-6 17,-19 24,-31 9,-16 15,-31 15,-31 -10,10 -19,17 -28,23 -20,11 -40,14 -74,20 -25,5 -48,28 -65,41 -13,10 -26,15 -36,16 l 105,-139 31,-41 0,0 -41,31 -137,104 c 7,-29 23,-64 36,-81 12,-15 31,-32 43,-53 5,-9 8,-24 10,-38 2,-18 2,-35 2,-35 -6,13 -11,23 -18,32 -14,18 -32,28 -61,47 -21,14 -33,44 -44,63 -8,15 -18,23 -26,29 L 870,92 883,42 857,86 770,234 c -5,-30 -3,-67 3,-88 5,-19 16,-41 20,-66 1,-11 -2,-25 -5,-38 -5,-18 -11,-33 -11,-33 0,14 -2,26 -4,36 -6,22 -19,38 -38,67 -14,22 -14,54 -17,75 -2,17 -9,29 -14,37 l 0,0 -25,-173 -7,-51 0,0 -7,51 -24,173 c -5,-8 -11,-20 -13,-37 -3,-22 -2,-54 -17,-75 -19,-28 -32,-45 -38,-67 -3,-10 -4,-22 -4,-36 0,0 -6,15 -12,33 -3,13 -7,28 -5,38 3,25 15,47 19,66 6,21 8,58 3,88 L 487,86 461,42 l 13,50 43,169 c -8,-5 -18,-14 -27,-29 -11,-19 -23,-49 -44,-63 -28,-19 -46,-29 -61,-47 -7,-8 -12,-18 -18,-32 0,0 0,16 2,35 1,14 4,28 10,38 12,21 32,38 43,53 13,17 29,51 36,81 l -137,-104 -41,-31 0,0 31,41 105,139 c -10,-2 -22,-6 -36,-16 -17,-13 -39,-37 -65,-41 -33,-6 -54,-9 -74,-20 -9,-5 -18,-12 -28,-23 0,0 6,16 15,31 7,12 15,25 23,31 20,15 44,24 61,33 19,11 46,36 64,61 l -166,-43 -50,-13 44,26 150,89 c -10,2 -23,3 -39,-2 -21,-6 -51,-18 -76,-13 -34,7 -53,13 -76,10 -11,-1 -22,-4 -35,-10 0,0 12,12 26,23 11,9 23,17 33,19 24,7 50,5 69,7 21,3 57,16 82,31 l -170,24 -51,7 51,7 151,22 c -84,24 -152,56 -203,90 l 0,188 c 11,-10 23,-19 36,-28 l 0,41 c -24,12 -75,34 -133,48 l 65,46 -28,100 c 34,-3 71,-19 96,-33 l 0,408 -81,-72 20,-3 -39,-13 -57,-25 40,48 27,33 -4,-20 95,84 0,42 -79,-53 22,-5 -39,-11 -59,-21 43,45 28,31 -5,-19 90,61 0,25 -39,-8 -60,-17 45,43 30,29 -6,-16 29,16 0,27 -35,-4 -61,-12 49,39 12,10 -40,-3 -62,-9 50,36 34,25 -9,-17 331,116 -240,-60 21,-10 -41,-2 -62,-7 52,35 35,24 -9,-17 375,95 c 0,1 0,2 0,3 l -244,-42 19,-11 -41,1 -62,-3 54,31 36,21 -11,-17 246,43 c 0,2 0,3 0,5 l 0,0 c 0,1 0,3 0,4 l 0,1 c 0,1 0,2 0,4 0,0 0,1 0,1 0,1 0,3 0,4 l 0,0 c 0,1 0,3 1,4 0,0 0,1 0,1 0,1 0,2 0,3 0,0 0,1 0,1 0,1 0,2 0,2 0,0 0,1 0,1 0,1 1,2 1,3 -9,1 -17,1 -26,1 -50,0 -99,-9 -146,-19 l -14,-3 c -2,0 -3,0 -4,2 -1,1 -1,3 0,5 1,2 34,42 49,57 -4,2 -10,5 -16,8 -36,19 -36,19 -36,22 0,2 1,3 3,4 61,20 118,30 171,30 45,0 87,-7 126,-21 17,7 33,12 38,12 2,0 3,0 4,-1 1,-1 3,-2 4,-3 32,9 67,14 103,14 53,0 110,-10 171,-30 2,-1 3,-2 3,-4 0,-3 0,-4 -36,-22 -6,-3 -12,-6 -16,-8 15,-15 47,-55 49,-57 1,-1 1,-3 0,-5 -1,-1 -3,-2 -4,-2 l -14,3 c -44,9 -90,18 -138,18 1,0 1,-1 2,-1 11,-5 22,-13 33,-23 11,4 24,5 36,4 24,-3 47,-15 69,-37 0,0 3,-2 3,-6 0,-4 0,-4 -17,-21 6,2 13,3 20,3 16,0 39,-6 62,-36 0,0 2,-3 2,-6 -1,-3 -1,-3 -7,-8 7,2 15,3 22,3 l 0,0 c 19,0 62,-7 86,-63 7,2 15,4 23,4 18,0 46,-7 74,-40 0,0 3,-3 2,-7 0,-4 -1,-4 -19,-20 -4,-4 -9,-8 -13,-11 6,1 12,2 17,2 16,0 53,-7 68,-66 0,0 0,0 1,-3 1,-3 -3,-5 -10,-7 16,-1 36,-10 56,-37 0,0 1,-1 2,-3 1,-1 -1,-7 -17,-18 -2,-2 -5,-4 -7,-5 2,0 4,0 6,0 18,0 35,-7 47,-19 z"
               id="path5843" /><path
               style="fill:#fefefe;fill-rule:nonzero"
               inkscape:connector-curvature="0"
               class="fil1"
               d="m 156,958 0,-72 c -24,11 -63,27 -106,37 l 56,40 -24,87 c 26,-3 53,-13 74,-23 l 0,-51 0,-19 z"
               id="path5845" /><path
               style="fill:#fefefe;fill-rule:nonzero"
               inkscape:connector-curvature="0"
               class="fil1"
               d="m 1202,980 c 0,15 0,31 0,47 21,10 48,21 74,23 l -24,-87 56,-40 c -43,-10 -82,-26 -105,-37 0,22 0,47 0,76 l 0,18 z"
               id="path5847" /><path
               style="fill:#fefefe;fill-rule:nonzero"
               inkscape:connector-curvature="0"
               class="fil1"
               d="m 1183,904 0,-28 c 0,-23 0,-42 0,-54 C 1083,758 895,708 680,708 462,708 284,755 176,820 l 0,56 0,27 0,43 c 1,-1 3,-1 4,-2 2,-1 5,-2 7,-4 107,-55 273,-100 489,-100 214,0 394,48 496,103 2,1 5,3 7,4 2,1 3,2 4,2 0,-16 0,-32 0,-46 z"
               id="path5849" /><path
               style="fill:#2b2a29;fill-rule:nonzero"
               inkscape:connector-curvature="0"
               class="fil0"
               d="m 732,1131 c 0,0 0,0 0,0 l 0,0 z"
               id="path5851" /><polygon
               style="fill:#2b2a29;fill-rule:nonzero"
               class="fil0"
               points="566,999 566,999 "
               id="polygon5853" /><polygon
               style="fill:#2b2a29;fill-rule:nonzero"
               class="fil0"
               points="387,766 349,776 349,786 362,783 362,846 374,843 374,780 387,777 "
               id="polygon5855" /><polygon
               style="fill:#2b2a29;fill-rule:nonzero"
               class="fil0"
               points="393,765 394,839 406,836 405,763 "
               id="polygon5857" /><polygon
               style="fill:#2b2a29;fill-rule:nonzero"
               class="fil0"
               points="419,760 419,833 455,827 455,816 431,820 431,798 449,795 449,784 430,788 430,768 454,764 454,753 "
               id="polygon5859" /><path
               style="fill:#2b2a29;fill-rule:nonzero"
               inkscape:connector-curvature="0"
               class="fil0"
               d="m 489,769 c 0,3 -1,7 -3,9 -2,2 -4,3 -7,3 l -5,1 0,-22 6,-1 c 1,0 2,0 3,0 2,0 3,1 4,1 2,2 3,6 3,8 z m 8,13 c 2,-3 3,-7 3,-14 0,-4 0,-8 -4,-13 -3,-4 -7,-6 -12,-6 -2,0 -4,0 -6,1 l -17,2 1,73 12,-2 0,-30 7,-1 10,29 12,-2 -12,-31 c 2,-1 4,-3 6,-6 z"
               id="path5861" /><path
               style="fill:#2b2a29;fill-rule:nonzero"
               inkscape:connector-curvature="0"
               class="fil0"
               d="m 537,764 c 0,3 -1,7 -2,9 -2,2 -4,3 -7,3 l -5,1 0,-22 5,-1 c 1,0 2,0 3,0 3,0 4,1 4,1 3,3 3,7 3,8 z m 8,13 c 2,-4 3,-9 3,-14 0,-4 0,-8 -4,-13 -4,-6 -9,-7 -13,-7 -2,0 -3,0 -5,0 l -17,2 1,73 12,-1 0,-30 7,-1 10,29 12,-1 -12,-32 c 2,-1 4,-3 6,-6 z"
               id="path5863" /><path
               style="fill:#2b2a29;fill-rule:nonzero"
               inkscape:connector-curvature="0"
               class="fil0"
               d="m 570,783 4,-23 4,22 -8,1 z m 4,-43 0,0 0,0 -5,0 -16,74 12,-1 4,-20 13,-1 4,20 12,-1 -17,-72 -6,0 z"
               id="path5865" /><path
               style="fill:#2b2a29;fill-rule:nonzero"
               inkscape:connector-curvature="0"
               class="fil0"
               d="m 660,772 c 0,12 -3,19 -5,22 -2,3 -6,5 -10,5 l -3,0 -1,-52 4,0 c 6,0 10,2 12,8 1,3 3,8 3,18 z m 2,-31 c -4,-4 -9,-5 -18,-5 l -15,0 0,73 15,0 c 3,0 12,0 18,-7 6,-6 10,-18 10,-31 0,-13 -4,-25 -10,-30 z"
               id="path5867" /><polygon
               style="fill:#2b2a29;fill-rule:nonzero"
               class="fil0"
               points="680,736 680,809 716,810 716,799 692,799 692,776 710,777 710,766 692,766 692,747 715,747 715,736 "
               id="polygon5869" /><polygon
               style="fill:#2b2a29;fill-rule:nonzero"
               class="fil0"
               points="723,737 724,810 757,811 757,801 736,800 735,737 "
               id="polygon5871" /><polygon
               style="fill:#2b2a29;fill-rule:nonzero"
               class="fil0"
               points="791,814 803,815 802,783 821,784 821,774 802,772 802,752 825,754 825,744 790,741 "
               id="polygon5873" /><path
               style="fill:#2b2a29;fill-rule:nonzero"
               inkscape:connector-curvature="0"
               class="fil0"
               d="m 868,749 -11,-2 0,51 c 0,6 -1,9 -2,11 0,0 -1,1 -4,1 -1,0 -1,0 -2,0 -7,-1 -8,-6 -8,-15 l 0,-50 -12,-2 0,51 c 0,10 0,24 19,26 1,0 3,0 4,0 5,0 8,-1 11,-4 5,-5 5,-13 5,-18 l 0,-50 z"
               id="path5875" /><polygon
               style="fill:#2b2a29;fill-rule:nonzero"
               class="fil0"
               points="879,751 879,824 915,830 915,820 891,816 891,794 909,797 909,786 890,783 890,764 914,767 914,757 "
               id="polygon5877" /><path
               style="fill:#2b2a29;fill-rule:nonzero"
               inkscape:connector-curvature="0"
               class="fil0"
               d="m 941,797 0,11 11,2 c 0,6 0,9 -1,11 -2,4 -4,7 -8,6 -11,-2 -11,-22 -11,-29 0,-10 0,-21 4,-25 1,-1 3,-2 6,-1 6,1 8,8 10,15 l 0,2 10,-2 0,-2 c -1,-6 -4,-20 -19,-23 -4,-1 -8,-1 -12,1 -8,4 -11,14 -11,33 0,17 3,38 21,41 6,1 10,-1 13,-3 l 1,6 8,2 0,-39 -22,-5 z"
               id="path5879" /><path
               style="fill:#2b2a29;fill-rule:nonzero"
               inkscape:connector-curvature="0"
               class="fil0"
               d="m 1003,814 c 0,13 -1,20 -4,23 -1,1 -2,1 -3,1 -1,0 -1,0 -2,0 -5,-1 -11,-6 -11,-32 0,-12 1,-19 4,-22 1,-1 2,-1 3,-1 0,0 1,0 2,0 7,2 11,11 11,31 z m -10,-41 c -6,-1 -11,0 -15,3 -5,5 -8,15 -7,30 0,25 7,39 22,43 1,0 3,1 5,1 4,0 8,-2 11,-6 4,-6 6,-16 6,-28 0,-25 -8,-39 -22,-43 z"
               id="path5881" /><path
               style="fill:#e08600;fill-rule:nonzero"
               inkscape:connector-curvature="0"
               class="fil2"
               d="m 707,1171 c -1,5 -17,4 -34,-1 -17,-5 -30,-13 -29,-18 1,-5 17,-4 34,1 17,5 30,13 29,18 z"
               id="path5883" /><path
               style="fill:#fefefe;fill-rule:nonzero"
               inkscape:connector-curvature="0"
               class="fil1"
               d="m 608,1141 c -6,0 -11,-5 -11,-11 0,-6 5,-11 11,-11 6,0 11,5 11,11 0,6 -5,11 -11,11 z m 17,-5 c -1,-6 -2,-8 -3,-14 -2,-9 -4,-17 -6,-25 0,0 -1,-3 -1,-3 -25,-6 -44,6 -55,16 3,4 6,5 9,9 5,6 9,11 13,16 2,3 4,6 6,9 2,2 5,6 8,7 5,3 10,3 15,1 5,-1 8,-2 12,-6 1,-1 3,-3 3,-5 0,-2 0,-4 0,-4 z"
               id="path5885" /><path
               style="fill:#e08600;fill-rule:nonzero"
               inkscape:connector-curvature="0"
               class="fil2"
               d="m 544,1044 c -2,6 -21,5 -42,-1 -22,-6 -37,-16 -36,-22 2,-6 21,-5 42,1 21,6 37,16 36,22 z"
               id="path5887" /><path
               style="fill:#fefefe;fill-rule:nonzero"
               inkscape:connector-curvature="0"
               class="fil1"
               d="m 421,1008 c -7,0 -13,-6 -13,-13 0,-7 6,-13 13,-13 7,0 13,6 13,13 0,7 -6,13 -13,13 z m 21,-7 c -1,-7 -2,-10 -4,-18 -2,-10 -5,-21 -7,-31 0,0 -1,-4 -1,-4 -31,-7 -54,7 -68,19 4,5 7,6 11,11 6,7 11,13 16,20 3,4 5,7 7,10 2,3 6,7 9,9 6,3 12,3 18,2 6,-1 10,-3 14,-7 2,-1 3,-4 4,-6 0,-2 0,-5 0,-6 z"
               id="path5889" /><path
               style="fill:#e08600;fill-rule:nonzero"
               inkscape:connector-curvature="0"
               class="fil2"
               d="m 538,1685 c -1,7 15,14 37,17 -3,-9 -5,-18 -7,-26 -17,0 -29,3 -29,9 z"
               id="path5891" /><path
               style="fill:#fefefe;fill-rule:nonzero"
               inkscape:connector-curvature="0"
               class="fil1"
               d="m 599,1480 2,-1 c 0,0 0,-1 0,-1 -2,-43 31,-80 73,-84 6,-97 -11,-174 -45,-176 -38,-3 -82,87 -98,207 -15,109 -1,203 30,224 -20,-122 35,-166 38,-168 z"
               id="path5893" /><path
               style="fill:#fefefe;fill-rule:nonzero"
               inkscape:connector-curvature="0"
               class="fil1"
               d="m 713,1449 c -5,0 -10,-4 -10,-9 0,-5 4,-10 9,-10 5,0 10,4 10,9 0,5 -4,10 -9,10 z m -66,3 c -5,0 -10,-4 -10,-9 0,-5 4,-10 9,-10 5,0 10,4 10,9 0,5 -4,10 -9,10 z m 91,-2 c -1,-21 -12,-38 -25,-38 -12,1 -21,17 -21,37 l 0,0 c -1,10 -6,17 -12,18 -6,0 -12,-7 -14,-17 l 0,0 c -2,-20 -12,-35 -24,-35 -12,1 -22,19 -21,40 0,8 2,16 5,22 l 109,-5 c 2,-6 3,-14 3,-22 z"
               id="path5895" /><path
               style="fill:#b2b3b3;fill-rule:nonzero"
               inkscape:connector-curvature="0"
               class="fil3"
               d="m 667,1487 -4,0 -30,1 -26,1 c -13,8 -66,53 -20,200 7,23 12,35 12,35 0,0 30,4 65,8 5,1 11,1 17,2 29,-131 -2,-221 -13,-247 z"
               id="path5897" /><path
               class="fil4"
               d="m 1116.5078,456.47655 c -2,0 -6.9043,-0.61914 -8.9043,-0.61914 -5,-1 -8.6035,0.14259 -12.6035,0.14259 -22,0 -44,10 -61,14 -4,1 -8,2 -12,2 0,0 0,0 -1,0 l -1,0 c -18,2 -37,-2 -49,-5 -8,-2 -14,-4 -15,-5 l 0,0 138,-81 -152,39 -2,1 0,0 0,0 0,0 0,0 1,-1 c 12,-26 43,-60 66,-80 6,-5 12,-9 17,-12 8,-5 19,-9 29,-14 11,-5 22,-11 31,-19 2,-1 3,-3 5,-5 1,-1 2,-2 3,-4 -14,4 -30,6 -52,11 -25,5 -48,28 -65,41 -28,22 -71,23 -75,23 l 37,-49 59,-79 -63,48 -63,48 -1,1 0,0 0,0 0,0 0,-1 c 1,-37 26,-97 42,-117 12,-15 31,-32 43,-53 2,-3 3,-7 4,-11 -1,1 -3,2 -4,4 -4,3 -9,6 -14,9 -5,3 -10,6 -15,10 -3,2 -7,5 -11,7 -16,11 -27,31 -36,48 -3,5 -5,11 -8,15 -17,31 -57,49 -61,50 l 0,0 40,-155 -80,136 -1,2 0,0 0,0 0,0 0,0 0,-1 0,-1 c -8,-23 -11,-59 -10,-88 0,-2 0,-4 0,-6 0,-4 0,-8 1,-12 1,-7 2,-13 3,-18 5,-19 17,-42 20,-66 1,-4 1,-7 0,-12 -5,10 -12,20 -21,33 -2,4 -5,7 -8,12 -15,21 -14,54 -17,75 -4,35 -34,67 -37,70 L 677,101 655,260 c -1,-1 -7,-8 -14,-17 -9,-13 -20,-32 -22,-52 -3,-22 -2,-54 -17,-75 -9,-12 -16,-23 -22,-32 -3,-4 -5,-8 -7,-12 -1,4 -1,8 0,12 1,9 3,17 6,25 5,15 11,29 14,41 1,3 2,7 2,12 4,29 3,82 -8,112 l 0,1 0,0 0,0 0,0 0,0 0,0 -1,-2 -80,-136 5,20 35,135 c -4,-1 -43,-19 -61,-50 -5,-8 -9,-18 -15,-28 -8,-14 -17,-27 -29,-35 -1,0 -1,-1 -2,-1 -18,-12 -31,-20 -42,-29 1,4 3,8 4,11 2,3 3,5 5,8 8,11 17,21 26,31 5,5 9,10 13,15 10,14 25,44 33,74 5,15 8,31 8,43 l 0,1 0,0 0,0 0,0 -1,-1 -79,-60 -47,-36 53,70 44,58 c -5,0 -48,-1 -76,-23 -17,-13 -39,-36 -65,-41 -22,-4 -38,-7 -52,-11 1,1 2,2 3,3 2,2 4,4 6,5 16,13 36,21 52,28 3,1 6,3 8,4 5,3 11,7 17,12 23,19 54,53 66,79 l 1,1 0,0 0,0 0,0 0,0 0,0 0,0 0,0 -2,-1 -51,-13 -101,-26 138,81 c -2,1 -11,4 -24,7 -13,3 -29,5 -45,2 -3,0 -6,-1 -9,-2 -6,-2 -14,-4 -21,-7 l 0,0 0,0 c -12,-4 -26,-7 -39,-8 -5,0 -10,0 -14,1 -22,4 -37,8 -52,10 2,1 3,1 5,2 2,1 4,2 6,2 24,7 49,5 68,7 26,3 87,29 113,54 l -159,22 142,20 c 83,-20 179,-33 289,-35 l 0,-37 c -50,-9 -88,-26 -86,-39 1,-7 7,-80 82,-110 -11,0 -32,-3 -28,-26 2,-11 23,-40 73,-32 50,8 72,55 63,91 0,0 7,18 0,41 0,0 13,11 4,67 -2,11 -33,16 -74,12 l 0,32 c 117,0 219,14 306,35 l 107,-15 27,-4 -159,-22 c 12,-11 30,-23 50,-32 24,-12 49,-21 64,-22 13,-2 29,-1 46,-3 8,-1 15,-2 23,-4 3,-1 7,-3 10,-4 -13,-1 -26.1113,-2.20701 -44.1113,-6.20701 z"
               id="path5899"
               inkscape:connector-curvature="0"
               style="fill:#f2e810;fill-rule:nonzero"
               sodipodi:nodetypes="ccsccscsccccccccccccccscccccccccccccscccsccccccccccccccccsccccccccccccccccccccccccccccccccccccccccsccccccccccccscccccccccccccccccscsccccccsccccccccccscccccccccccccccc" /><polygon
               style="fill:#f2e810;fill-rule:nonzero"
               class="fil4"
               points="993,573 993,573 1100,558 "
               id="polygon5901" /><path
               style="fill:#f2e810;fill-rule:nonzero"
               inkscape:connector-curvature="0"
               class="fil4"
               d="m 428,197 c 5,5 9,10 13,15 10,14 25,44 33,74 -9,-30 -23,-61 -33,-74 -4,-5 -8,-10 -13,-15 z"
               id="path5903" /><path
               style="fill:#f2e810;fill-rule:nonzero"
               inkscape:connector-curvature="0"
               class="fil4"
               d="m 913,178 c 4,-3 7,-5 11,-7 -4,2 -7,5 -11,7 -16,11 -27,31 -36,48 9,-17 20,-37 36,-48 z"
               id="path5905" /><path
               style="fill:#f2e810;fill-rule:nonzero"
               inkscape:connector-curvature="0"
               class="fil4"
               d="m 924,171 c 5,-3 10,-7 15,-10 -5,3 -10,6 -15,10 z"
               id="path5907" /><path
               style="fill:#f2e810;fill-rule:nonzero"
               inkscape:connector-curvature="0"
               class="fil4"
               d="m 393,148 0,0 c 1,4 3,8 4,11 1,3 3,5 5,8 -2,-2 -3,-5 -5,-8 -2,-3 -3,-7 -4,-11 z"
               id="path5909" /><path
               style="fill:#f2e810;fill-rule:nonzero"
               inkscape:connector-curvature="0"
               class="fil4"
               d="m 467,213 c -8,-14 -17,-27 -29,-35 -1,0 -1,-1 -2,-1 1,0 1,1 2,1 12,8 22,22 29,35 z"
               id="path5911" /><polygon
               style="fill:#f2e810;fill-rule:nonzero"
               class="fil4"
               points="483,331 483,330 483,331 483,331 "
               id="polygon5913" /><polygon
               style="fill:#f2e810;fill-rule:nonzero"
               class="fil4"
               points="767,275 767,275 766,274 "
               id="polygon5915" /><polygon
               style="fill:#f2e810;fill-rule:nonzero"
               class="fil4"
               points="868,330 867,331 867,331 868,330 931,282 "
               id="polygon5917" /><path
               style="fill:#f2e810;fill-rule:nonzero"
               inkscape:connector-curvature="0"
               class="fil4"
               d="m 909,212 c 12,-15 31,-32 44,-53 2,-3 3,-7 5,-11 -1,4 -3,8 -5,11 -13,21 -32,38 -44,53 z"
               id="path5919" /><path
               style="fill:#f2e810;fill-rule:nonzero"
               inkscape:connector-curvature="0"
               class="fil4"
               d="m 1005,340 c 6,-5 12,-9 17,-12 8,-5 19,-9 29,-14 -11,5 -21,10 -29,14 -5,3 -10,7 -17,12 z"
               id="path5921" /><polygon
               style="fill:#f2e810;fill-rule:nonzero"
               class="fil4"
               points="848,136 808,291 848,136 "
               id="polygon5923" /><path
               style="fill:#f2e810;fill-rule:nonzero"
               inkscape:connector-curvature="0"
               class="fil4"
               d="m 1019,472 c -18,2 -37,-2 -49,-5 13,3 31,7 49,5 z"
               id="path5925" /><polygon
               style="fill:#f2e810;fill-rule:nonzero"
               class="fil4"
               points="954,462 954,462 1092,381 "
               id="polygon5927" /><path
               style="fill:#f2e810;fill-rule:nonzero"
               inkscape:connector-curvature="0"
               class="fil4"
               d="m 576,108 c 5,15 11,29 14,41 1,3 2,7 2,12 -1,-4 -1,-8 -2,-12 -3,-12 -9,-26 -14,-41 z"
               id="path5929" /><path
               style="fill:#f2e810;fill-rule:nonzero"
               inkscape:connector-curvature="0"
               class="fil4"
               d="m 1116,458 c -2,0 -5,-1 -7,-1 -5,-1 -10,-1 -15,-1 5,0 10,0 14,1 2,1 5,1 7,1 z"
               id="path5931" /><polygon
               style="fill:#f2e810;fill-rule:nonzero"
               class="fil4"
               points="938,421 938,421 938,421 "
               id="polygon5933" /><polygon
               style="fill:#f2e810;fill-rule:nonzero"
               class="fil4"
               points="583,275 583,275 583,274 "
               id="polygon5935" /><path
               style="fill:#f2e810;fill-rule:nonzero"
               inkscape:connector-curvature="0"
               class="fil4"
               d="m 268,295 c -2,-2 -4,-3 -6,-5 2,2 4,4 6,5 z"
               id="path5937" /><path
               style="fill:#f2e810;fill-rule:nonzero"
               inkscape:connector-curvature="0"
               class="fil4"
               d="m 638,243 c 7,10 13,16 14,17 -1,-1 -8,-8 -14,-17 z"
               id="path5939" /><path
               style="fill:#f2e810;fill-rule:nonzero"
               inkscape:connector-curvature="0"
               class="fil4"
               d="m 1090,287 0,0 c -1,1 -2,2 -3,4 1,-1 2,-2 3,-4 z"
               id="path5941" /><path
               style="fill:#f2e810;fill-rule:nonzero"
               inkscape:connector-curvature="0"
               class="fil4"
               d="m 570,71 0,0 c 2,4 5,8 7,12 -3,-4 -5,-9 -7,-13 z"
               id="path5943" /><polygon
               style="fill:#f2e810;fill-rule:nonzero"
               class="fil4"
               points="697,261 675,102 675,102 "
               id="polygon5945" /><path
               style="fill:#f2e810;fill-rule:nonzero"
               inkscape:connector-curvature="0"
               class="fil4"
               d="m 697,261 c 3,-3 33,-35 37,-70 -4,35 -34,67 -37,70 z"
               id="path5947" /><polygon
               style="fill:#f2e810;fill-rule:nonzero"
               class="fil4"
               points="935,313 995,234 995,234 "
               id="polygon5949" /><path
               style="fill:#f2e810;fill-rule:nonzero"
               inkscape:connector-curvature="0"
               class="fil4"
               d="m 780,71 c -5,10 -12,20 -21,33 9,-13 16,-23 21,-33 l 0,0 z"
               id="path5951" /><polygon
               style="fill:#f2e810;fill-rule:nonzero"
               class="fil4"
               points="502,136 502,136 507,157 "
               id="polygon5953" /><path
               style="fill:#f2e810;fill-rule:nonzero"
               inkscape:connector-curvature="0"
               class="fil4"
               d="m 189,466 c 2,1 3,1 5,2 -2,-1 -3,-1 -5,-2 z"
               id="path5955" /><polygon
               style="fill:#f2e810;fill-rule:nonzero"
               class="fil4"
               points="483,331 482,330 403,270 482,330 "
               id="polygon5957" /><path
               style="fill:#f2e810;fill-rule:nonzero"
               inkscape:connector-curvature="0"
               class="fil4"
               d="m 256,455 c 13,0 26,4 39,8 -12,-4 -26,-7 -39,-8 z"
               id="path5959" /><polygon
               style="fill:#f2e810;fill-rule:nonzero"
               class="fil4"
               points="359,407 258,381 258,381 "
               id="polygon5961" /><path
               style="fill:#f2e810;fill-rule:nonzero"
               inkscape:connector-curvature="0"
               class="fil4"
               d="m 320,324 c -16,-8 -36,-16 -52,-29 16,13 36,21 52,29 z"
               id="path5963" /><polygon
               style="fill:#f2e810;fill-rule:nonzero"
               class="fil4"
               points="356,234 356,234 408,304 "
               id="polygon5965" /><path
               style="fill:#f2e810;fill-rule:nonzero"
               inkscape:connector-curvature="0"
               class="fil4"
               d="m 1018,500 c -19,9 -38,21 -50,32 12,-11 30,-23 50,-32 z"
               id="path5967" /><path
               style="fill:#f2e810;fill-rule:nonzero"
               inkscape:connector-curvature="0"
               class="fil4"
               d="m 412,421 0,0 0,0 c 0,0 0,0 0,0 z"
               id="path5969" /><polygon
               style="fill:#f2e810;fill-rule:nonzero"
               class="fil4"
               points="412,420 412,421 "
               id="polygon5971" /><path
               style="fill:#f2e810;fill-rule:nonzero"
               inkscape:connector-curvature="0"
               class="fil4"
               d="m 371,469 c -13,3 -29,5 -45,2 16,2 32,0 45,-2 z"
               id="path5973" /><path
               style="fill:#f2e810;fill-rule:nonzero"
               inkscape:connector-curvature="0"
               class="fil4"
               d="m 345,340 c 23,19 54,53 66,79 -12,-26 -43,-60 -66,-79 z"
               id="path5975" /><path
               style="fill:#f2e810;fill-rule:nonzero"
               inkscape:connector-curvature="0"
               class="fil4"
               d="m 412,421 0,0 c 0,0 0,0 0,0 0,0 0,0 0,0 l 0,0 z"
               id="path5977" /><path
               style="fill:#f2e810;fill-rule:nonzero"
               inkscape:connector-curvature="0"
               class="fil4"
               d="m 1150,471 c -8,2 -15,3 -23,4 8,-1 15,-2 23,-4 z"
               id="path5979" /><path
               class="fil4"
               d="m 1161,467 c -774,1056.1919 -387,528.09594 0,0 z"
               id="path5981"
               inkscape:connector-curvature="0"
               style="fill:#f2e810;fill-rule:nonzero"
               sodipodi:nodetypes="cc" /><polygon
               style="fill:#2b2a29;fill-rule:nonzero"
               class="fil0"
               points="993,573 993,573 "
               id="polygon5983" /><path
               style="fill:#fefefe;fill-rule:nonzero"
               inkscape:connector-curvature="0"
               class="fil1"
               d="m 135,681 0,146 c 100,-69 285,-130 541,-130 246,0 447,63 537,128 l 0,-146 C 1123,614 923,551 676,551 421,551 236,613 135,681 Z"
               id="path5985" /><polygon
               style="fill:#2b2a29;fill-rule:nonzero"
               class="fil0"
               points="187,691 182,694 180,694 175,697 175,771 185,766 185,722 195,761 203,757 212,710 212,753 223,748 222,674 209,680 199,735 "
               id="polygon5987" /><path
               style="fill:#2b2a29;fill-rule:nonzero"
               inkscape:connector-curvature="0"
               class="fil0"
               d="m 270,655 -11,4 0,50 c 0,10 -2,15 -8,17 -1,1 -2,1 -3,1 -3,0 -3,-3 -3,-11 l 0,-51 -11,4 0,50 c 0,8 0,19 11,19 2,0 5,-1 8,-2 18,-7 18,-23 18,-31 l 0,-51 z"
               id="path5989" /><polygon
               style="fill:#2b2a29;fill-rule:nonzero"
               class="fil0"
               points="294,647 282,650 283,724 293,721 293,669 312,714 323,711 322,638 312,641 312,687 "
               id="polygon5991" /><polygon
               style="fill:#2b2a29;fill-rule:nonzero"
               class="fil0"
               points="336,634 336,707 347,704 347,631 "
               id="polygon5993" /><path
               style="fill:#2b2a29;fill-rule:nonzero"
               inkscape:connector-curvature="0"
               class="fil0"
               d="m 388,672 c -1,8 -3,13 -8,14 -2,0 -4,0 -5,-1 -5,-5 -5,-18 -5,-23 0,-10 1,-16 2,-20 1,-4 3,-10 8,-11 5,-1 6,4 7,10 l 0,3 11,-5 0,-1 c -1,-5 -3,-17 -15,-17 -2,0 -3,0 -5,1 -4,1 -9,3 -13,9 -7,11 -8,28 -8,35 0,15 3,25 9,30 2,2 5,3 8,3 2,0 3,0 5,-1 13,-3 16,-14 18,-25 l 0,-2 -11,1 0,1 z"
               id="path5995" /><polygon
               style="fill:#2b2a29;fill-rule:nonzero"
               class="fil0"
               points="406,616 407,690 418,687 418,614 "
               id="polygon5997" /><polygon
               style="fill:#2b2a29;fill-rule:nonzero"
               class="fil0"
               points="809,595 809,668 821,670 820,596 "
               id="polygon5999" /><path
               style="fill:#2b2a29;fill-rule:nonzero"
               inkscape:connector-curvature="0"
               class="fil0"
               d="m 933,648 0,11 11,2 c 0,6 0,9 -1,11 -1,3 -3,7 -8,6 -11,-2 -11,-22 -11,-29 0,-10 0,-21 4,-25 1,-1 3,-2 6,-1 6,1 8,8 10,15 l 0,2 10,-2 0,-2 c -2,-9 -5,-20 -19,-23 -4,-1 -8,0 -12,2 -8,4 -11,14 -11,33 0,17 3,38 21,41 6,1 10,-1 13,-3 l 1,5 9,2 0,-39 -22,-4 z"
               id="path6001" /><polygon
               style="fill:#2b2a29;fill-rule:nonzero"
               class="fil0"
               points="1065,647 1053,643 1053,716 1064,720 1063,670 1082,727 1093,730 1092,657 1082,653 1083,698 "
               id="polygon6003" /><polygon
               style="fill:#2b2a29;fill-rule:nonzero"
               class="fil0"
               points="1183,697 1151,681 1152,755 1184,771 1184,760 1162,749 1162,728 1179,736 1179,725 1162,717 1162,698 1183,708 "
               id="polygon6005" /><path
               style="fill:#2b2a29;fill-rule:nonzero"
               inkscape:connector-curvature="0"
               class="fil0"
               d="m 447,643 -4,1 0,-24 4,-1 c 1,0 2,0 3,0 2,0 6,0 7,10 0,10 -4,13 -10,14 z m 16,-31 c -3,-3 -6,-4 -11,-4 -2,0 -4,0 -7,1 l -15,3 1,73 12,-2 0,-28 5,-1 c 13,-2 20,-12 20,-26 0,-9 -3,-13 -5,-16 z"
               id="path6007" /><path
               style="fill:#2b2a29;fill-rule:nonzero"
               inkscape:connector-curvature="0"
               class="fil0"
               d="m 782,623 c -2,2 -4,2 -7,2 l -6,0 0,-22 5,0 c 4,0 6,1 7,3 3,3 3,8 3,9 0,3 -1,7 -2,8 z m 11,6 c 2,-2 4,-6 4,-14 0,-4 -1,-8 -4,-13 -5,-8 -12,-9 -18,-9 l -17,-1 1,73 12,1 0,-30 7,0 10,31 13,1 -12,-34 c 2,-1 4,-2 5,-5 z"
               id="path6009" /><path
               style="fill:#2b2a29;fill-rule:nonzero"
               inkscape:connector-curvature="0"
               class="fil0"
               d="m 860,663 c -1,1 -3,2 -5,2 -5,-1 -11,-5 -11,-30 0,-12 1,-20 5,-23 1,-1 3,-2 4,-2 0,0 1,0 1,0 7,1 10,10 11,29 0,13 -1,21 -5,24 z m -6,-64 c -6,-1 -10,1 -14,4 -6,6 -8,16 -8,31 0,25 8,38 22,40 1,0 2,0 3,0 5,0 10,-2 13,-7 4,-7 6,-16 6,-29 0,-25 -8,-38 -22,-40 z"
               id="path6011" /><path
               style="fill:#2b2a29;fill-rule:nonzero"
               inkscape:connector-curvature="0"
               class="fil0"
               d="m 1021,677 4,-21 4,23 -8,-2 z m -33,-22 c -1,1 -2,1 -3,1 -1,0 -2,0 -3,-1 l -6,-1 0,-22 5,1 c 4,1 6,2 7,4 2,3 3,8 3,10 0,3 -1,6 -2,8 z m 37,-20 0,0 -5,-1 -16,68 -11,-36 c 2,0 4,-2 5,-4 2,-2 3,-6 3,-13 0,-4 0,-8 -4,-14 -5,-9 -11,-10 -17,-12 l -17,-4 0,73 12,3 0,-30 6,2 10,33 12,3 0,0 11,3 4,-19 12,3 4,21 12,3 -16,-78 -6,-2 z"
               id="path6013" /><path
               style="fill:#2b2a29;fill-rule:nonzero"
               inkscape:connector-curvature="0"
               class="fil0"
               d="m 1127,729 c 0,0 -1,2 -4,2 -1,0 -3,0 -5,-1 l -4,-2 0,-52 2,1 c 4,2 9,5 12,14 1,4 3,9 3,19 0,13 -3,18 -4,19 z m -11,-63 -13,-5 0,74 13,5 c 2,1 6,3 10,3 3,0 5,-1 7,-2 6,-4 9,-15 9,-28 0,-13 -4,-26 -9,-34 -5,-7 -10,-10 -17,-13 z"
               id="path6015" /><path
               style="fill:#fefefe;fill-rule:nonzero"
               inkscape:connector-curvature="0"
               class="fil1"
               d="m 506,1401 c 21,-155 1,-289 -52,-293 -50,-4 -106,112 -126,267 -4,27 -6,54 -7,79 -7,12 -15,19 -24,19 -16,0 -28,-19 -31,-32 -25,-114 -6,-253 -6,-255 0,-1 -1,-2 -2,-2 l 0,0 c -1,0 -2,1 -2,1 -30,112 -13,221 -7,261 4,29 27,44 45,44 10,0 21,-5 28,-17 -1,50 4,93 12,127 l 70,62 c 43,-24 86,-130 104,-261 z"
               id="path6017" /><path
               style="fill:#537bd1;fill-rule:nonzero"
               inkscape:connector-curvature="0"
               class="fil5"
               d="m 671,1864 c -3,-9 -5,-20 -5,-30 0,-1 0,-1 0,-2 -14,0 -27,1 -40,2 l 44,30 z"
               id="path6019" /><path
               style="fill:#6d5809;fill-rule:nonzero"
               inkscape:connector-curvature="0"
               class="fil6"
               d="m 663,1776 c 0,-2 0,-4 0,-5 1,-4 3,-8 7,-12 -7,3 -16,5 -26,6 -5,1 -11,1 -15,1 2,1 5,2 7,4 14,7 28,15 40,23 1,-1 1,-3 2,-4 0,0 1,-2 2,-4 -9,-1 -16,-4 -17,-10 z"
               id="path6021" /><path
               style="fill:#6d5809;fill-rule:nonzero"
               inkscape:connector-curvature="0"
               class="fil6"
               d="m 176,1669 71,32 c 16,-3 33,-4 50,-5 l -121,-67 0,41 z"
               id="path6023" /><path
               style="fill:#6d5809;fill-rule:nonzero"
               inkscape:connector-curvature="0"
               class="fil6"
               d="m 585,1739 -8,-27 c -27,-4 -48,-13 -51,-22 -5,-1 -27,-7 -32,-8 -24,-5 -46,-16 -64,-30 -1,1 -2,2 -3,3 -5,5 -11,8 -18,12 l 1,1 c 36,6 64,18 62,30 -1,4 -5,8 -13,11 51,10 99,25 143,44 3,-4 10,-7 19,-10 -17,-2 -28,-3 -30,-3 l -5,-1 z"
               id="path6025" /><path
               style="fill:#b6a883;fill-rule:nonzero"
               inkscape:connector-curvature="0"
               class="fil7"
               d="m 501,1782 -16,-14 -1,0 -79,-53 c -4,0 -8,-1 -12,-1 -8,-1 -15,-2 -22,-3 l 103,58 27,15 z"
               id="path6027" /><path
               style="fill:#b6a883;fill-rule:nonzero"
               inkscape:connector-curvature="0"
               class="fil7"
               d="m 635,1770 c -2,-1 -5,-2 -7,-4 -5,0 -9,0 -13,-1 -9,-1 -15,-4 -16,-7 0,0 0,0 0,0 0,-1 0,-3 2,-4 -43,-19 -91,-34 -143,-44 -1,0 -1,0 -2,1 l 4,4 39,35 28,19 37,25 52,35 c 15,-2 31,-3 49,-3 1,-9 4,-19 7,-26 1,-2 2,-4 2,-5 -13,-8 -26,-16 -40,-23 z"
               id="path6029" /><path
               style="fill:#b6a883;fill-rule:nonzero"
               inkscape:connector-curvature="0"
               class="fil7"
               d="m 424,1767 -124,-69 -3,-2 c -17,1 -33,2 -50,5 l 4,2 145,64 61,27 71,32 -57,-32 -47,-27 z"
               id="path6031" /><path
               style="fill:#47c0e7;fill-rule:nonzero"
               inkscape:connector-curvature="0"
               class="fil8"
               d="m 566,999 c 0,0 0,0 0,0 0,0 0,0 0,0 z m 617,25 0,-7 c 0,-18 0,-35 0,-51 -2,-1 -4,-2 -6,-4 -2,-1 -5,-3 -7,-4 -103,-60 -284,-107 -490,-107 -210,0 -383,43 -492,105 -2,1 -5,3 -7,4 -2,1 -4,2 -6,3 l 0,53 0,7 0,235 36,0 c 16,-95 50,-190 108,-263 7,-9 15,-18 25,-27 20,-20 34,-31 59,-34 11,-1 22,0 32,3 17,6 36,18 45,34 5,8 8,18 13,27 1,2 2,3 3,5 3,4 6,7 10,10 1,0 1,0 2,0 27,8 46,23 43,33 -3,10 -28,12 -54,3 -6,-2 -11,-4 -16,-6 -3,3 -6,6 -8,10 -4,11 -1,24 8,33 1,1 2,3 3,4 12,18 22,35 29,55 4,-5 8,-10 11,-15 6,-7 12,-15 20,-22 16,-16 28,-25 48,-27 9,-1 18,0 26,3 14,5 29,15 37,28 4,7 6,15 11,22 1,1 2,2 2,4 2,3 5,6 8,8 1,0 1,0 2,0 22,7 38,19 35,27 -2,8 -22,10 -44,3 -5,-1 -9,-3 -13,-5 -3,2 -5,5 -6,8 -4,9 -1,19 6,27 1,1 1,2 2,3 10,16 19,31 25,49 l 500,0 c 0,-82 0,-164 0,-234 z"
               id="path6033" /><path
               style="fill:#009846;fill-rule:nonzero"
               inkscape:connector-curvature="0"
               class="fil9"
               d="m 1149,1679 0,0 c -1,-2 -2,-4 -3,-7 1,2 1,5 3,7 z"
               id="path6035" /><path
               style="fill:#009846;fill-rule:nonzero"
               inkscape:connector-curvature="0"
               class="fil9"
               d="m 1117,1632 0,0 c -2,-2 -3,-5 -3,-8 1,3 2,5 3,8 z"
               id="path6037" /><path
               style="fill:#009846;fill-rule:nonzero"
               inkscape:connector-curvature="0"
               class="fil9"
               d="m 1216,1600 0,0 c 0,0 0,0 0,-1 0,0 0,0 0,1 z"
               id="path6039" /><path
               style="fill:#009846;fill-rule:nonzero"
               inkscape:connector-curvature="0"
               class="fil9"
               d="m 897,1800 c -4,-2 -9,-3 -14,-3 5,-1 10,1 14,3 z"
               id="path6041" /><path
               style="fill:#009846;fill-rule:nonzero"
               inkscape:connector-curvature="0"
               class="fil9"
               d="m 918,1740 c 2,0 3,0 5,1 -2,0 -3,-1 -5,-1 z"
               id="path6043" /><path
               style="fill:#009846;fill-rule:nonzero"
               inkscape:connector-curvature="0"
               class="fil9"
               d="m 1213,1526 c 0,-6 2,-13 7,-17 -5,5 -8,11 -7,17 z"
               id="path6045" /><path
               style="fill:#009846;fill-rule:nonzero"
               inkscape:connector-curvature="0"
               class="fil9"
               d="m 1351,1396 c 0,0 0,0 0,0 0,0 0,0 0,0 z"
               id="path6047" /><path
               style="fill:#009846;fill-rule:nonzero"
               inkscape:connector-curvature="0"
               class="fil9"
               d="m 1284,1505 c -2,6 -1,13 3,18 -4,-5 -4,-12 -3,-18 z"
               id="path6049" /><path
               style="fill:#009846;fill-rule:nonzero"
               inkscape:connector-curvature="0"
               class="fil9"
               d="m 1214,1528 c 0,-1 0,-1 0,-2 0,1 0,1 0,2 z"
               id="path6051" /><path
               style="fill:#009846;fill-rule:nonzero"
               inkscape:connector-curvature="0"
               class="fil9"
               d="m 744,1778 0,0 c 2,0 3,0 5,1 -2,0 -3,-1 -5,-1 z"
               id="path6053" /><path
               style="fill:#009846;fill-rule:nonzero"
               inkscape:connector-curvature="0"
               class="fil9"
               d="m 1214,1531 c 0,0 0,0 0,0 0,0 0,0 0,0 z"
               id="path6055" /><path
               style="fill:#009846;fill-rule:nonzero"
               inkscape:connector-curvature="0"
               class="fil9"
               d="m 1295,1444 c 0,0 0,-1 0,-1 0,0 0,1 0,1 z"
               id="path6057" /><path
               style="fill:#009846;fill-rule:nonzero"
               inkscape:connector-curvature="0"
               class="fil9"
               d="m 1293,1472 c 0,0 1,0 1,0 0,0 0,0 0,0 l -1,0 z"
               id="path6059" /><path
               style="fill:#009846;fill-rule:nonzero"
               inkscape:connector-curvature="0"
               class="fil9"
               d="m 1063,1685 c 0,0 1,0 1,0 l 0,0 -1,0 0,0 z"
               id="path6061" /><path
               style="fill:#009846;fill-rule:nonzero"
               inkscape:connector-curvature="0"
               class="fil9"
               d="m 1216,1543 c 0,0 0,0 0,0 l 0,0 c 0,0 0,0 0,0 z"
               id="path6063" /><path
               style="fill:#009846;fill-rule:nonzero"
               inkscape:connector-curvature="0"
               class="fil9"
               d="m 1059,1660 c -1,-1 -1,-2 -2,-3 1,1 1,2 2,3 l 0,0 z"
               id="path6065" /><path
               style="fill:#009846;fill-rule:nonzero"
               inkscape:connector-curvature="0"
               class="fil9"
               d="m 1094,1607 c 0,0 0,0 0,0 l 0,0 0,0 0,0 z"
               id="path6067" /><path
               style="fill:#009846;fill-rule:nonzero"
               inkscape:connector-curvature="0"
               class="fil9"
               d="m 1002,1674 c -2,-2 -3,-4 -6,-7 2,2 4,5 6,7 l 0,0 z"
               id="path6069" /><path
               style="fill:#009846;fill-rule:nonzero"
               inkscape:connector-curvature="0"
               class="fil9"
               d="m 1184,1641 0,0 c 0,0 0,-1 1,-1 0,0 0,1 -1,1 z"
               id="path6071" /><path
               style="fill:#b3ba06;fill-rule:nonzero"
               inkscape:connector-curvature="0"
               class="fil10"
               d="m 1350,1351 c 0,0 0,0 0,-1 0,0 0,0 -1,1 -3,5 -13,27 -11,39 5,-2 10,-5 14,-7 6,-7 5,-18 -3,-33 z"
               id="path6073" /><path
               style="fill:#b3ba06;fill-rule:nonzero"
               inkscape:connector-curvature="0"
               class="fil10"
               d="m 1264,1418 c 0,0 -1,0 -1,-1 l 0,2 c 0,8 2,36 10,52 1,2 2,3 3,5 1,1 1,1 2,2 2,-2 4,-3 5,-5 0,0 1,-1 1,-2 14,-18 6,-35 -20,-54 z"
               id="path6075" /><path
               style="fill:#2a8b23;fill-rule:nonzero"
               inkscape:connector-curvature="0"
               class="fil11"
               d="m 1327,1396 c 1,0 2,-1 2,-1 0,0 4,-2 9,-5 -2,-12 8,-33 11,-39 1,-1 1,-1 1,-1 0,0 0,0 0,1 7,15 9,25 3,33 3,-1 5,-2 6,-2 l 0,0 0,0 c 1,-2 1,-3 1,-5 2,-8 0,-18 -9,-30 0,0 -13,10 -14,11 -4,4 -8,8 -11,14 -3,8 -4,18 0,26 0,0 0,0 0,0 z"
               id="path6077" /><path
               style="fill:#2a8b23;fill-rule:nonzero"
               inkscape:connector-curvature="0"
               class="fil11"
               d="m 1264,1491 c 0,0 1,1 1,1 0,0 0,-1 0,-1 2,-6 6,-11 11,-15 -1,-1 -2,-3 -3,-5 -8,-16 -10,-44 -10,-52 0,-1 0,-2 0,-2 0,0 1,0 1,1 27,19 35,35 20,54 0,1 -1,1 -1,2 3,-1 7,-2 10,-2 l 1,0 c 1,-3 2,-6 2,-9 0,-2 0,-4 0,-7 0,-4 -1,-9 -2,-13 0,0 0,-1 0,-1 -4,-12 -14,-23 -33,-31 0,0 -9,22 -10,24 -3,8 -5,16 -4,25 1,12 7,23 16,31 z"
               id="path6079" /><path
               style="fill:#2a8b23;fill-rule:nonzero"
               inkscape:connector-curvature="0"
               class="fil11"
               d="m 745,1846 c 1,-4 2,-9 3,-13 0,-3 0,-5 0,-8 0,-1 0,-1 0,-2 -3,-1 -6,-3 -8,-5 1,3 1,5 1,7 0,10 -5,19 -15,28 -2,2 -5,4 -7,6 0,0 -1,-1 -1,-1 -16,-24 -10,-83 -10,-83 9,8 16,15 22,22 0,0 0,0 0,0 0,-1 0,-2 0,-3 0,-3 1,-6 2,-9 -1,-1 -1,-1 -2,-2 -6,-6 -12,-12 -20,-17 -6,10 -15,28 -16,30 -7,15 -10,26 -11,37 0,22 9,41 24,54 3,-1 6,-3 8,-4 6,-3 11,-8 15,-12 2,-2 4,-5 6,-8 4,-5 7,-12 9,-18 z"
               id="path6081" /><path
               style="fill:#2a8b23;fill-rule:nonzero"
               inkscape:connector-curvature="0"
               class="fil11"
               d="m 755,1767 c 1,0 3,0 5,0 0,0 1,0 1,0 12,1 23,9 26,20 0,0 1,-1 1,-1 2,-1 4,-2 6,-4 0,0 11,-5 20,-10 0,-4 0,-8 0,-12 -5,8 -13,14 -25,20 -1,-1 -1,-3 -2,-5 -1,-3 -2,-6 -2,-9 -4,-26 5,-64 9,-75 1,-2 1,-3 1,-3 0,0 1,1 1,1 14,17 22,32 24,46 1,-5 3,-9 5,-14 0,0 0,0 0,-1 -4,-13 -14,-27 -30,-41 0,0 -23,27 -24,29 -7,10 -14,21 -16,33 -2,8 -2,16 -1,24 0,0 0,0 0,0 z"
               id="path6083" /><path
               style="fill:#2a8b23;fill-rule:nonzero"
               inkscape:connector-curvature="0"
               class="fil11"
               d="m 847,1861 c 32,-12 101,15 101,15 -50,33 -82,32 -101,-15 z m 80,-13 c -2,-2 -5,-4 -7,-6 -2,-1 -3,-2 -5,-4 -2,1 -4,2 -6,3 -2,1 -4,1 -5,1 -12,1 -22,-4 -28,-14 -1,-1 -1,-3 -2,-4 0,0 -1,0 -1,0 0,0 -1,0 -1,0 0,0 0,1 0,1 0,1 0,2 -1,3 -4,12 -16,20 -29,19 -1,0 -3,0 -4,0 0,0 0,0 0,1 0,0 0,0 0,1 -2,4 -5,7 -9,10 1,4 3,9 6,13 7,12 16,22 28,29 24,14 56,13 90,-18 1,-1 2,-2 4,-3 0,-1 -27,-28 -30,-30 z"
               id="path6085" /><path
               style="fill:#2a8b23;fill-rule:nonzero"
               inkscape:connector-curvature="0"
               class="fil11"
               d="m 835,1767 1,2 1,3 c 1,2 2,3 2,5 2,4 3,8 4,12 l 0,0 c 1,0 1,0 1,0 6,0 12,3 16,6 3,-1 7,-1 10,-2 0,0 1,0 1,0 6,-2 11,-4 17,-8 5,-3 10,-7 15,-11 1,-1 2,-2 3,-3 -2,-4 -3,-7 -3,-12 l 0,0 c -8,9 -20,15 -37,18 -6,-30 24,-83 33,-97 1,-2 2,-3 2,-3 0,0 0,1 1,2 8,20 13,37 13,51 0,2 0,5 -1,7 3,-3 7,-5 10,-6 0,0 0,0 0,0 0,0 0,-1 0,-1 1,-18 -4,-38 -20,-61 0,0 -34,23 -36,25 -10,7 -18,16 -25,26 -1,2 -2,4 -3,6 -7,13 -10,28 -9,43 l 3,0 z"
               id="path6087" /><path
               style="fill:#2a8b23;fill-rule:nonzero"
               inkscape:connector-curvature="0"
               class="fil11"
               d="m 1018,1822 c -33,28 -56,29 -73,-2 19,-10 60,-2 71,1 2,0 3,1 3,1 0,0 -1,0 -1,1 z m -17,-19 c -8,-6 -17,-11 -27,-12 -16,-2 -32,1 -44,12 0,0 -1,1 -1,1 0,0 0,0 0,0 0,2 1,3 1,5 0,1 0,2 0,3 0,1 0,2 0,3 l 0,0 c 7,18 27,35 50,34 1,0 1,0 2,0 0,0 0,0 1,0 14,-1 29,-9 43,-28 0,0 -22,-17 -24,-19 z"
               id="path6089" /><path
               style="fill:#2a8b23;fill-rule:nonzero"
               inkscape:connector-curvature="0"
               class="fil11"
               d="m 1115,1742 c -26,47 -54,59 -92,29 10,-13 31,-22 51,-28 5,-2 10,-3 15,-4 6,-2 12,-3 17,-4 -2,-2 -4,-4 -5,-6 -2,-3 -5,-6 -7,-9 -2,0 -3,-1 -5,-1 0,0 0,0 0,0 0,2 -1,5 -2,7 -2,5 -6,10 -11,13 -5,3 -11,5 -16,5 l 0,0 c -9,0 -18,-5 -23,-13 -1,-1 -2,-1 -3,-1 -1,0 -1,-1 -2,-1 -1,-1 -3,-2 -4,-2 -2,1 -3,2 -4,2 0,1 -1,2 -1,3 -1,2 -2,4 -3,6 -6,11 -16,21 -27,28 17,28 63,46 97,24 13,-8 24,-21 32,-40 0,0 0,0 -1,0 -2,-2 -5,-3 -7,-5 z"
               id="path6091" /><path
               style="fill:#2a8b23;fill-rule:nonzero"
               inkscape:connector-curvature="0"
               class="fil11"
               d="m 1215,1709 c 0,0 -1,1 -1,1 -26,20 -47,28 -64,21 -7,-3 -12,-8 -18,-15 -3,-4 -5,-8 -8,-13 24,-11 74,2 88,6 2,1 3,1 3,1 z m -31,-31 c -2,-1 -4,-2 -6,-3 -1,2 -3,3 -5,5 -1,1 -2,1 -2,2 -13,8 -31,5 -39,-8 0,0 0,0 0,-1 -1,-1 -1,-2 -1,-3 -1,0 -2,1 -2,1 0,1 0,1 -1,1 0,1 -1,2 -1,2 -5,8 -11,15 -19,21 2,5 4,10 7,15 8,12 20,23 34,28 6,2 12,3 18,3 18,0 38,-9 57,-31 1,0 -26,-23 -28,-25 -4,-3 -7,-5 -11,-7 z"
               id="path6093" /><path
               style="fill:#2a8b23;fill-rule:nonzero"
               inkscape:connector-curvature="0"
               class="fil11"
               d="m 1204,1651 c 16,-20 69,-28 69,-28 -19,39 -40,50 -69,28 z m 16,-38 c -15,4 -28,14 -35,27 0,0 0,1 -1,1 -1,1 -1,2 -2,3 1,1 1,2 2,2 9,13 28,23 47,22 20,-1 40,-14 49,-48 0,0 -27,-7 -30,-8 -10,-2 -20,-3 -30,0 z"
               id="path6095" /><path
               style="fill:#2a8b23;fill-rule:nonzero"
               inkscape:connector-curvature="0"
               class="fil11"
               d="m 1321,1565 c -30,27 -52,31 -70,5 -1,-2 -2,-3 -3,-5 1,-1 2,-1 3,-2 20,-8 58,-1 68,1 2,0 3,1 3,1 0,0 -1,0 -1,1 z m -17,-19 c -8,-5 -18,-10 -28,-11 -8,-1 -17,0 -24,2 -5,2 -10,4 -14,7 -3,2 -6,4 -8,7 l 0,0 c 0,0 -1,1 -1,1 0,0 0,0 -1,1 1,0 2,0 3,1 6,2 12,6 16,12 4,6 5,12 4,18 0,0 0,0 0,0 9,7 21,11 33,10 0,0 0,0 0,0 0,0 0,0 1,0 14,-2 29,-10 43,-29 0,0 -23,-17 -25,-18 z"
               id="path6097" /><path
               style="fill:#2a8b23;fill-rule:nonzero"
               inkscape:connector-curvature="0"
               class="fil11"
               d="m 1361,1516 c 0,0 1,-1 1,-1 10,-10 16,-26 16,-49 0,-1 -28,1 -31,1 -2,0 -5,1 -7,1 -5,2 -9,3 -14,4 -1,0 -2,1 -3,1 -1,1 -3,1 -4,2 -2,1 -4,2 -6,4 1,1 2,2 3,3 1,1 1,1 2,2 3,5 5,11 5,16 l 0,0 c 0,1 0,2 0,3 0,0 0,0 0,0 14,-15 39,-29 47,-33 1,-1 2,-1 2,-1 0,0 0,1 0,1 -7,39 -22,55 -50,48 -2,0 -4,-1 -6,-2 -2,3 -5,5 -8,8 -1,0 -1,1 -2,1 -1,0 -2,1 -3,1 3,1 5,2 8,2 4,1 8,1 12,1 14,0 27,-5 37,-15 z"
               id="path6099" /><path
               style="fill:#2a8b23;fill-rule:nonzero"
               inkscape:connector-curvature="0"
               class="fil11"
               d="m 1027,1705 c 0,1 0,3 0,4 l 0,0 c 2,1 3,3 5,4 0,-1 0,-2 0,-2 0,-1 0,-2 1,-3 1,-6 4,-11 9,-15 -2,-2 -4,-5 -6,-8 -10,-16 -16,-37 -18,-44 0,-2 -1,-2 -1,-2 0,0 1,0 1,0 30,12 43,26 37,46 0,0 0,0 0,1 3,-1 5,-1 8,-1 0,0 0,0 0,0 l 1,0 c 0,-1 0,-2 0,-2 0,-1 -1,-1 -1,-2 -2,-6 -4,-13 -4,-20 0,-1 -1,-2 -2,-3 -7,-12 -20,-21 -42,-25 0,0 -4,25 -5,27 0,1 0,2 0,3 2,2 3,4 4,6 9,13 12,25 12,35 z"
               id="path6101" /><path
               style="fill:#2a8b23;fill-rule:nonzero"
               inkscape:connector-curvature="0"
               class="fil11"
               d="m 1077,1674 c 1,3 3,6 4,9 0,0 1,1 1,1 1,2 3,4 4,6 1,1 2,2 3,3 1,1 2,2 3,2 3,-1 5,-2 8,-4 1,-1 2,-1 3,-2 5,-4 10,-8 13,-14 1,-1 1,-2 2,-4 3,-5 5,-11 5,-17 1,-6 0,-12 -2,-18 l 0,0 c -1,0 -2,0 -4,0 -1,0 -3,0 -4,-1 0,0 0,1 1,1 2,4 4,9 4,13 0,2 0,4 -1,6 -1,4 -3,7 -5,10 -3,4 -6,7 -11,10 -2,-3 -4,-7 -6,-12 -4,-15 -4,-34 -4,-45 0,-4 0,-6 0,-7 0,-2 0,-4 0,-6 l 0,0 c -1,2 -12,22 -13,23 -4,8 -7,16 -7,25 0,2 0,4 0,5 0,4 1,8 3,12 z"
               id="path6103" /><path
               style="fill:#2a8b23;fill-rule:nonzero"
               inkscape:connector-curvature="0"
               class="fil11"
               d="m 1166,1620 c 0,0 0,0 0,0 9,-2 19,-7 26,-15 2,-2 4,-4 6,-7 0,0 -1,-1 -1,-1 -2,-2 -3,-5 -3,-7 0,0 -1,1 -1,1 -3,4 -8,7 -13,11 -11,-19 -5,-61 -2,-72 0,-2 0,-3 0,-3 0,0 0,1 1,1 8,9 14,17 18,24 2,3 3,7 4,10 2,-2 3,-4 6,-5 0,0 0,0 0,0 0,0 0,0 0,0 -1,-2 -1,-3 -2,-5 -1,-3 -2,-5 -4,-8 -2,-3 -4,-6 -7,-9 -4,-5 -10,-10 -16,-14 0,0 -16,23 -17,25 -5,8 -10,18 -11,28 0,2 0,4 0,7 0,5 1,10 2,15 3,9 7,18 15,24 z"
               id="path6105" /><path
               style="fill:#2a8b23;fill-rule:nonzero"
               inkscape:connector-curvature="0"
               class="fil11"
               d="m 988,1676 c 1,-4 2,-6 2,-6 1,1 1,2 2,3 13,21 18,37 12,50 -3,6 -9,11 -17,16 -2,1 -4,2 -6,3 -7,-17 3,-50 8,-64 z m -30,68 c 1,1 1,2 2,3 1,1 1,3 2,4 1,1 2,3 3,4 0,0 1,0 1,0 3,0 6,-1 9,-1 17,-4 33,-19 37,-37 1,-3 1,-5 1,-8 0,-10 -3,-21 -11,-33 -2,-2 -3,-5 -6,-7 -1,-1 -3,-3 -4,-5 0,0 -19,19 -21,21 -6,7 -12,15 -15,25 -2,7 -2,14 -2,20 1,5 2,10 4,15 z"
               id="path6107" /><path
               style="fill:#b3ba06;fill-rule:nonzero"
               inkscape:connector-curvature="0"
               class="fil10"
               d="m 709,1775 c 0,0 -6,59 10,83 0,0 0,1 1,1 3,-2 5,-4 7,-6 10,-9 14,-19 14,-28 0,-2 0,-5 -1,-7 -6,-5 -9,-12 -10,-20 0,0 0,0 0,0 -5,-7 -13,-15 -22,-22 z"
               id="path6109" /><path
               style="fill:#b3ba06;fill-rule:nonzero"
               inkscape:connector-curvature="0"
               class="fil10"
               d="m 796,1688 c 0,0 0,1 -1,3 -3,11 -12,49 -9,75 0,3 1,6 2,9 1,2 1,3 2,5 12,-6 20,-13 25,-20 1,-9 3,-17 5,-26 -2,-13 -10,-28 -24,-46 0,0 -1,-1 -1,-1 z"
               id="path6111" /><path
               style="fill:#b3ba06;fill-rule:nonzero"
               inkscape:connector-curvature="0"
               class="fil10"
               d="m 847,1861 c 18,47 51,48 101,15 0,0 -69,-28 -101,-15 z"
               id="path6113" /><path
               style="fill:#b3ba06;fill-rule:nonzero"
               inkscape:connector-curvature="0"
               class="fil10"
               d="m 902,1678 c 0,0 0,-1 -1,-2 0,0 -1,1 -2,3 -8,14 -39,67 -33,97 17,-3 30,-9 37,-18 l 0,0 0,-2 c 0,-8 4,-15 10,-20 0,-2 1,-5 1,-7 0,-14 -4,-31 -13,-51 z"
               id="path6115" /><path
               style="fill:#b3ba06;fill-rule:nonzero"
               inkscape:connector-curvature="0"
               class="fil10"
               d="m 944,1819 c 17,32 41,30 73,2 0,0 1,0 1,-1 0,0 -1,0 -3,-1 -11,-3 -53,-11 -71,-1 z"
               id="path6117" /><path
               style="fill:#b3ba06;fill-rule:nonzero"
               inkscape:connector-curvature="0"
               class="fil10"
               d="m 1075,1742 c -20,6 -41,16 -51,28 38,30 66,18 92,-29 -3,-2 -6,-5 -9,-8 -5,1 -10,2 -17,4 -5,1 -10,3 -15,4 z"
               id="path6119" /><path
               style="fill:#b3ba06;fill-rule:nonzero"
               inkscape:connector-curvature="0"
               class="fil10"
               d="m 1124,1702 c 2,5 5,9 8,13 5,7 11,12 18,15 17,7 38,0 64,-21 0,0 1,-1 1,-1 0,0 -1,0 -3,-1 -13,-4 -64,-17 -88,-6 z"
               id="path6121" /><path
               style="fill:#b3ba06;fill-rule:nonzero"
               inkscape:connector-curvature="0"
               class="fil10"
               d="m 1204,1651 c 29,23 50,12 69,-28 0,0 -54,8 -69,28 z"
               id="path6123" /><path
               style="fill:#b3ba06;fill-rule:nonzero"
               inkscape:connector-curvature="0"
               class="fil10"
               d="m 1251,1563 c -1,0 -2,1 -3,2 1,2 2,4 3,5 18,26 40,22 70,-5 0,0 1,0 1,-1 0,0 -1,0 -3,-1 -10,-2 -48,-9 -68,-1 z"
               id="path6125" /><path
               style="fill:#b3ba06;fill-rule:nonzero"
               inkscape:connector-curvature="0"
               class="fil10"
               d="m 1371,1472 c 0,0 0,-1 0,-1 0,0 -1,0 -2,1 -8,4 -33,17 -47,33 0,0 0,0 0,0 -1,5 -2,9 -5,13 2,1 4,1 6,2 28,7 43,-9 50,-48 z"
               id="path6127" /><path
               style="fill:#b3ba06;fill-rule:nonzero"
               inkscape:connector-curvature="0"
               class="fil10"
               d="m 1018,1638 c 0,0 -1,0 -1,0 0,0 0,1 1,2 2,7 8,29 18,44 2,3 4,5 6,8 1,-1 2,-2 4,-3 3,-2 6,-3 10,-4 0,0 0,-1 0,-1 6,-20 -7,-34 -37,-46 z"
               id="path6129" /><path
               style="fill:#b3ba06;fill-rule:nonzero"
               inkscape:connector-curvature="0"
               class="fil10"
               d="m 1097,1666 c 1,5 3,9 6,12 5,-3 8,-7 11,-10 3,-3 4,-7 5,-10 0,-2 1,-4 1,-6 0,-4 -1,-9 -4,-13 0,0 0,-1 -1,-1 -7,-2 -13,-6 -17,-12 -2,-3 -3,-7 -4,-10 0,1 0,4 -1,7 0,11 -1,30 4,45 z"
               id="path6131" /><path
               style="fill:#b3ba06;fill-rule:nonzero"
               inkscape:connector-curvature="0"
               class="fil10"
               d="m 1178,1528 c 0,0 0,-1 -1,-1 0,0 0,1 -1,3 -2,11 -9,53 2,72 6,-3 10,-7 13,-11 0,0 1,-1 1,-2 -1,-3 -1,-6 -1,-9 l 0,0 c 0,-7 3,-13 7,-18 -1,-3 -2,-6 -4,-10 -4,-7 -10,-15 -18,-24 z"
               id="path6133" /><path
               style="fill:#b3ba06;fill-rule:nonzero"
               inkscape:connector-curvature="0"
               class="fil10"
               d="m 986,1737 c 9,-4 14,-9 17,-16 6,-12 2,-29 -12,-50 -1,-1 -1,-2 -2,-2 0,0 -1,2 -2,6 -5,14 -15,47 -8,64 2,-1 4,-2 6,-3 z"
               id="path6135" /><path
               style="fill:#b877c1;fill-rule:nonzero"
               inkscape:connector-curvature="0"
               class="fil12"
               d="m 747,1814 c 1,1 2,1 3,1 3,1 5,2 8,2 0,0 0,0 0,0 0,-1 1,-1 1,-2 1,-3 3,-5 5,-7 0,0 1,-1 1,-1 0,0 0,0 1,-1 1,-3 1,-6 0,-9 0,-2 -1,-3 -1,-5 -1,-2 -2,-5 -4,-7 -3,-4 -7,-6 -12,-8 -2,0 -3,-1 -5,-1 0,0 -1,1 -1,1 -3,3 -5,6 -6,10 0,1 0,2 0,3 0,2 -1,4 0,6 1,7 5,13 11,16 z"
               id="path6137" /><path
               style="fill:#b877c1;fill-rule:nonzero"
               inkscape:connector-curvature="0"
               class="fil12"
               d="m 908,1821 c 0,-3 0,-5 -1,-8 -1,-4 -3,-8 -7,-10 -1,-1 -3,-2 -4,-3 -4,-2 -9,-3 -14,-3 -3,4 -5,9 -5,14 0,1 0,1 0,2 0,1 0,3 1,4 1,2 2,4 3,6 1,2 3,4 5,5 4,3 8,4 12,5 1,0 3,0 4,0 1,-1 1,-2 2,-3 2,-3 3,-7 3,-10 z"
               id="path6139" /><polygon
               style="fill:#b877c1;fill-rule:nonzero"
               class="fil12"
               points="883,1798 883,1798 "
               id="polygon6141" /><path
               style="fill:#b877c1;fill-rule:nonzero"
               inkscape:connector-curvature="0"
               class="fil12"
               d="m 939,1760 c 0,0 0,-1 0,-1 -2,-9 -8,-15 -16,-18 l 0,0 c -2,0 -3,-1 -5,-1 l 0,0 c -6,5 -9,12 -8,20 0,2 1,3 1,5 0,0 0,1 0,1 3,7 9,12 16,13 1,0 3,0 4,1 5,-5 9,-12 8,-20 z"
               id="path6143" /><path
               style="fill:#b877c1;fill-rule:nonzero"
               inkscape:connector-curvature="0"
               class="fil12"
               d="m 1221,1509 c -5,5 -8,11 -7,17 l 0,0 c 0,1 0,1 0,2 0,1 0,1 0,2 0,0 0,0 0,0 1,2 2,5 3,7 2,0 4,1 6,0 5,0 11,-2 15,-6 1,-1 2,-2 3,-3 5,-8 5,-18 0,-25 -7,-2 -15,0 -20,5 z"
               id="path6145" /><path
               style="fill:#b877c1;fill-rule:nonzero"
               inkscape:connector-curvature="0"
               class="fil12"
               d="m 1149,1679 c 0,0 0,0 0,0 0,0 0,0 0,0 z"
               id="path6147" /><path
               style="fill:#b877c1;fill-rule:nonzero"
               inkscape:connector-curvature="0"
               class="fil12"
               d="m 1166,1676 c 1,-1 2,-1 3,-2 1,-1 1,-2 2,-2 2,-3 4,-5 4,-8 0,-1 0,-1 0,-2 1,-7 0,-14 -6,-19 1,1 2,2 2,3 -2,-1 -5,-1 -7,-1 -5,0 -9,2 -13,6 -2,1 -3,3 -4,5 -2,4 -4,8 -4,12 0,2 0,3 1,5 1,2 2,5 3,7 6,1 12,1 17,-3 z"
               id="path6149" /><path
               style="fill:#b877c1;fill-rule:nonzero"
               inkscape:connector-curvature="0"
               class="fil12"
               d="m 1234,1568 c -4,0 -8,1 -11,3 -1,0 -2,1 -2,2 l -1,0 c -7,7 -9,17 -4,26 0,0 0,0 0,0 0,0 0,0 0,1 6,1 12,1 16,-3 1,-1 2,-1 3,-2 1,-1 1,-2 2,-2 4,-4 5,-10 4,-15 0,-1 0,-2 -1,-3 0,-2 -1,-4 -3,-6 -1,0 -2,0 -2,0 -1,0 -2,0 -2,0 z"
               id="path6151" /><path
               style="fill:#b877c1;fill-rule:nonzero"
               inkscape:connector-curvature="0"
               class="fil12"
               d="m 1217,1600 c 0,0 0,0 0,0 0,0 0,0 0,0 z"
               id="path6153" /><polygon
               style="fill:#b877c1;fill-rule:nonzero"
               class="fil12"
               points="1215,1600 1215,1600 1215,1600 "
               id="polygon6155" /><path
               style="fill:#b877c1;fill-rule:nonzero"
               inkscape:connector-curvature="0"
               class="fil12"
               d="m 1287,1523 c 0,0 0,0 0,0 l 0,0 0,0 z"
               id="path6157" /><path
               style="fill:#b877c1;fill-rule:nonzero"
               inkscape:connector-curvature="0"
               class="fil12"
               d="m 1303,1489 c -1,0 -2,0 -3,1 -3,1 -6,3 -9,5 -3,3 -5,7 -6,11 -2,6 -1,13 3,18 3,1 6,1 9,1 1,0 2,-1 3,-1 3,-1 6,-2 8,-5 8,-8 9,-20 3,-29 -1,0 -2,0 -3,0 -2,0 -4,0 -5,0 z"
               id="path6159" /><path
               style="fill:#b877c1;fill-rule:nonzero"
               inkscape:connector-curvature="0"
               class="fil12"
               d="m 1074,1701 c -2,0 -5,0 -7,1 -3,1 -6,3 -8,5 -3,3 -5,6 -6,9 -1,2 -1,5 -1,7 0,3 1,6 2,9 1,1 1,2 2,4 7,2 15,0 21,-5 2,-2 4,-4 5,-7 1,-2 2,-5 2,-7 1,-4 0,-8 -2,-12 0,0 0,-1 -1,-1 0,-1 -1,-1 -1,-2 -1,0 -1,0 -2,0 -1,0 -2,0 -3,0 z"
               id="path6161" /><path
               style="fill:#b877c1;fill-rule:nonzero"
               inkscape:connector-curvature="0"
               class="fil12"
               d="m 1108,1628 c 0,0 0,0 0,0 0,0 1,0 1,1 0,0 -1,0 -1,-1 0,0 0,0 0,0 z"
               id="path6163" /><path
               style="fill:#b877c1;fill-rule:nonzero"
               inkscape:connector-curvature="0"
               class="fil12"
               d="m 1120,1603 c -1,1 -2,3 -3,4 -3,5 -5,11 -4,16 0,0 0,1 0,1 1,3 2,5 3,8 0,0 0,0 0,0 1,0 2,0 3,0 2,0 4,0 6,0 2,0 3,-1 5,-1 2,-1 4,-2 5,-3 1,-1 1,-1 2,-1 5,-4 7,-10 7,-16 0,-4 -1,-9 -4,-13 l 0,0 c -7,-2 -15,0 -20,5 z"
               id="path6165" /><path
               style="fill:#b877c1;fill-rule:nonzero"
               inkscape:connector-curvature="0"
               class="fil12"
               d="m 850,1826 c 1,-2 1,-5 0,-7 l 0,0 c 0,-2 -1,-5 -2,-7 0,0 0,-1 -1,-1 -3,-6 -9,-10 -15,-11 0,0 0,0 -1,0 -1,0 -2,0 -3,0 -1,1 -2,3 -3,4 -1,1 -2,3 -2,4 -2,4 -2,8 -2,12 0,1 0,1 0,1 1,2 1,5 2,7 1,2 3,4 5,6 0,0 0,0 0,0 0,0 1,1 1,1 0,0 1,0 1,1 3,2 7,4 11,4 0,0 0,0 1,0 3,-3 5,-7 7,-11 0,-1 0,-1 0,-2 z"
               id="path6167" /><path
               style="fill:#6f0579;fill-rule:nonzero"
               inkscape:connector-curvature="0"
               class="fil13"
               d="m 758,1817 0,0 c 0,0 0,0 0,0 0,0 0,0 0,0 0,0 0,0 0,0 0,0 0,0 0,0 z"
               id="path6169" /><path
               style="fill:#6f0579;fill-rule:nonzero"
               inkscape:connector-curvature="0"
               class="fil13"
               d="m 750,1779 c 5,1 9,4 12,8 2,2 3,4 4,7 1,2 1,3 1,5 0,3 0,6 0,9 1,-2 3,-4 5,-6 0,0 0,0 0,0 3,-4 7,-7 11,-9 -2,-10 -11,-18 -21,-18 -1,0 -3,0 -4,0 -1,0 -3,1 -4,1 0,0 -1,0 -1,0 -1,0 -2,1 -3,1 0,0 -1,0 -1,0 0,0 0,0 0,0 -1,1 -2,1 -3,2 0,0 0,0 0,0 2,0 3,0 5,1 z"
               id="path6171" /><path
               style="fill:#6f0579;fill-rule:nonzero"
               inkscape:connector-curvature="0"
               class="fil13"
               d="m 745,1778 c 0,0 0,0 0,0 l 0,0 c 0,0 0,0 0,0 z"
               id="path6173" /><path
               style="fill:#6f0579;fill-rule:nonzero"
               inkscape:connector-curvature="0"
               class="fil13"
               d="m 906,1834 c 0,0 1,0 1,0 4,-1 7,-3 9,-6 0,0 0,0 1,-1 5,-6 7,-13 5,-21 -1,-4 -3,-7 -6,-10 -1,-1 -1,-1 -2,-2 -5,-4 -13,-6 -20,-3 -1,0 -2,1 -4,2 0,0 -1,0 -1,1 -1,0 -1,1 -2,1 0,0 -1,1 -1,1 0,0 -1,1 -1,1 0,0 -1,1 -1,1 5,-1 10,0 14,3 1,1 3,2 4,3 3,3 5,6 7,10 1,3 1,5 1,8 0,4 -1,7 -3,10 -1,1 -1,2 -2,3 1,0 2,0 4,-1 z"
               id="path6175" /><path
               style="fill:#6f0579;fill-rule:nonzero"
               inkscape:connector-curvature="0"
               class="fil13"
               d="m 897,1800 c 1,1 3,2 4,3 -1,-1 -2,-2 -4,-3 z"
               id="path6177" /><path
               style="fill:#6f0579;fill-rule:nonzero"
               inkscape:connector-curvature="0"
               class="fil13"
               d="m 884,1796 c 0,0 -1,1 -1,1 l 0,0 c 0,0 1,-1 1,-1 z"
               id="path6179" /><polygon
               style="fill:#6f0579;fill-rule:nonzero"
               class="fil13"
               points="918,1740 918,1740 "
               id="polygon6181" /><path
               style="fill:#6f0579;fill-rule:nonzero"
               inkscape:connector-curvature="0"
               class="fil13"
               d="m 924,1736 0,0 c -1,0 -1,1 -2,1 0,0 -1,0 -1,1 -1,0 -2,1 -2,2 0,0 0,0 -1,1 l 0,0 c 2,0 3,0 5,1 8,2 15,9 16,18 0,0 0,1 0,1 1,8 -2,15 -8,20 1,0 2,0 4,0 9,-1 17,-8 19,-17 1,-3 1,-6 1,-8 -1,-6 -4,-11 -9,-15 -1,-1 -1,-1 -2,-1 -4,-3 -9,-4 -15,-3 -1,0 -3,0 -4,1 0,0 -1,0 -1,0 0,0 0,0 -1,0 z"
               id="path6183" /><polygon
               style="fill:#6f0579;fill-rule:nonzero"
               class="fil13"
               points="918,1740 918,1740 918,1740 "
               id="polygon6185" /><path
               style="fill:#6f0579;fill-rule:nonzero"
               inkscape:connector-curvature="0"
               class="fil13"
               d="m 919,1739 c 0,0 -1,0 -1,1 l 0,0 c 0,0 0,0 1,-1 z"
               id="path6187" /><path
               style="fill:#6f0579;fill-rule:nonzero"
               inkscape:connector-curvature="0"
               class="fil13"
               d="m 1206,1531 c 1,1 2,2 3,3 0,0 1,0 1,0 1,1 2,1 3,2 l 0,0 c 0,0 0,0 1,0 1,0 3,1 4,1 -1,-2 -3,-5 -3,-7 0,0 0,0 0,0 0,-1 0,-2 0,-2 0,-1 0,-1 0,-2 l 0,0 c 0,-6 2,-13 7,-17 6,-5 13,-7 20,-5 l 0,0 c -1,-1 -2,-2 -2,-3 -8,-9 -23,-10 -32,-1 -7,6 -9,15 -6,23 1,3 3,7 5,9 z"
               id="path6189" /><polygon
               style="fill:#6f0579;fill-rule:nonzero"
               class="fil13"
               points="1217,1538 1217,1538 "
               id="polygon6191" /><polygon
               style="fill:#6f0579;fill-rule:nonzero"
               class="fil13"
               points="1213,1526 1213,1526 "
               id="polygon6193" /><path
               style="fill:#6f0579;fill-rule:nonzero"
               inkscape:connector-curvature="0"
               class="fil13"
               d="m 1214,1530 c 0,-1 0,-2 0,-2 0,1 0,2 0,2 z"
               id="path6195" /><path
               style="fill:#6f0579;fill-rule:nonzero"
               inkscape:connector-curvature="0"
               class="fil13"
               d="m 1217,1538 0,0 c -1,-2 -2,-5 -3,-7 0,2 2,5 3,7 z"
               id="path6197" /><path
               style="fill:#6f0579;fill-rule:nonzero"
               inkscape:connector-curvature="0"
               class="fil13"
               d="m 1146,1672 c 0,-2 -1,-3 -1,-5 0,-4 1,-9 4,-12 1,-2 2,-3 4,-5 4,-3 8,-5 13,-6 3,0 5,0 7,1 -1,-1 -1,-2 -2,-3 -1,-1 -2,-2 -3,-3 -1,-1 -2,-1 -3,-2 -1,0 -1,-1 -2,-1 -4,-2 -7,-2 -11,-2 -3,0 -6,1 -9,3 -1,1 -2,2 -4,3 -4,4 -7,9 -7,14 0,4 0,9 3,13 1,1 2,3 3,4 0,0 0,0 0,0 1,1 2,2 3,3 0,0 1,0 1,1 1,0 2,1 2,1 1,0 1,0 1,1 1,0 2,0 2,1 0,0 1,0 1,0 -1,-2 -2,-4 -3,-7 z"
               id="path6199" /><path
               style="fill:#6f0579;fill-rule:nonzero"
               inkscape:connector-curvature="0"
               class="fil13"
               d="m 1148,1679 c 0,0 1,0 1,0 0,0 0,0 0,0 0,0 -1,0 -1,0 z"
               id="path6201" /><path
               style="fill:#6f0579;fill-rule:nonzero"
               inkscape:connector-curvature="0"
               class="fil13"
               d="m 1215,1600 c 0,0 1,0 1,0 0,0 -1,0 -1,0 z"
               id="path6203" /><path
               style="fill:#6f0579;fill-rule:nonzero"
               inkscape:connector-curvature="0"
               class="fil13"
               d="m 1237,1566 c -1,-1 -2,-2 -3,-3 -1,-1 -2,-2 -4,-2 -3,-1 -6,-2 -9,-2 -2,0 -5,0 -7,1 -2,1 -5,2 -7,4 0,0 0,0 -1,0 -3,3 -5,6 -6,10 0,0 0,1 0,1 -1,5 0,10 2,14 0,0 0,1 0,1 1,1 1,2 2,3 1,1 2,2 3,3 0,0 1,0 1,1 1,0 1,1 2,1 0,0 1,0 1,1 1,0 1,0 2,1 0,0 0,0 0,0 l 0,0 c 0,0 1,0 1,0 0,0 0,0 0,-1 0,0 0,0 0,0 -5,-8 -3,-19 4,-26 l 1,0 c 1,-1 2,-1 2,-2 4,-2 7,-3 11,-3 1,0 2,0 2,0 1,0 1,0 2,0 l 0,0 c -1,-1 -1,-2 -2,-3 z"
               id="path6205" /><path
               style="fill:#6f0579;fill-rule:nonzero"
               inkscape:connector-curvature="0"
               class="fil13"
               d="m 1215,1600 c 0,0 1,0 1,0 0,0 0,0 0,0 0,0 -1,0 -1,0 z"
               id="path6207" /><path
               style="fill:#6f0579;fill-rule:nonzero"
               inkscape:connector-curvature="0"
               class="fil13"
               d="m 1291,1479 c -1,0 -1,0 -2,0 -5,0 -9,2 -13,6 -3,3 -6,7 -7,11 0,0 0,0 0,0 -1,5 -1,11 2,15 1,2 2,4 3,5 0,0 0,0 1,1 1,1 2,1 2,2 0,0 1,0 1,1 1,1 2,1 2,1 0,0 1,0 1,1 1,0 1,0 2,1 0,0 1,0 1,0 -4,-5 -4,-12 -3,-18 1,-4 3,-8 6,-11 3,-2 6,-4 9,-5 1,0 2,-1 3,-1 2,0 4,0 5,0 1,0 2,0 3,0 l 0,0 c 0,-1 -1,-1 -1,-2 0,0 -1,-1 -1,-1 -1,-1 -1,-1 -2,-2 -1,-1 -2,-2 -3,-2 -2,-1 -4,-2 -7,-3 -2,0 -4,0 -6,0 z"
               id="path6209" /><path
               style="fill:#6f0579;fill-rule:nonzero"
               inkscape:connector-curvature="0"
               class="fil13"
               d="m 1285,1523 c 0,0 1,0 1,0 0,0 0,0 0,0 -1,0 -1,0 -1,0 z"
               id="path6211" /><path
               style="fill:#6f0579;fill-rule:nonzero"
               inkscape:connector-curvature="0"
               class="fil13"
               d="m 1062,1691 c -4,0 -7,0 -11,2 -2,1 -4,2 -5,3 0,0 -1,1 -1,1 -2,2 -4,5 -5,7 -1,3 -2,7 -2,10 l 0,1 c 0,1 0,2 1,3 1,2 1,4 2,6 1,1 2,3 3,4 1,1 2,2 3,3 0,0 0,0 1,1 1,1 2,1 3,2 0,0 0,0 0,0 0,0 1,0 1,0 1,0 2,1 3,1 0,0 1,0 1,0 -1,-1 -1,-2 -2,-4 -1,-3 -2,-6 -2,-9 0,-2 1,-5 1,-7 1,-3 3,-6 6,-9 2,-2 5,-4 8,-5 2,-1 5,-1 7,-1 1,0 2,0 3,0 1,0 1,0 2,0 0,0 0,0 0,0 -1,-1 -1,-2 -2,-3 0,-1 -1,-1 -2,-2 -1,-1 -3,-2 -4,-3 -3,-1 -5,-2 -8,-3 0,0 -1,0 -1,0 z"
               id="path6213" /><polygon
               style="fill:#6f0579;fill-rule:nonzero"
               class="fil13"
               points="1055,1736 1055,1736 "
               id="polygon6215" /><path
               style="fill:#6f0579;fill-rule:nonzero"
               inkscape:connector-curvature="0"
               class="fil13"
               d="m 1054,1736 c 0,0 1,0 1,0 l 0,0 c 0,0 -1,0 -1,0 z"
               id="path6217" /><path
               style="fill:#6f0579;fill-rule:nonzero"
               inkscape:connector-curvature="0"
               class="fil13"
               d="m 1055,1736 0,0 c -1,-1 -2,-2 -2,-4 1,1 1,3 2,4 z"
               id="path6219" /><path
               style="fill:#6f0579;fill-rule:nonzero"
               inkscape:connector-curvature="0"
               class="fil13"
               d="m 1105,1625 c 1,1 2,2 3,3 0,0 0,0 0,0 0,0 1,0 1,1 1,1 2,1 2,1 0,0 1,0 1,1 1,0 2,1 3,1 0,0 0,0 0,0 -2,-2 -3,-5 -3,-8 0,0 0,-1 0,-1 -1,-6 0,-11 3,-16 1,-1 2,-3 3,-4 6,-5 13,-7 20,-5 l 0,0 c 0,0 0,0 0,0 -1,-1 -1,-2 -2,-3 -9,-9 -23,-10 -32,-1 -1,1 -1,1 -2,2 -3,4 -5,8 -5,12 0,1 0,3 0,4 0,3 1,7 3,10 1,1 2,2 3,4 z"
               id="path6221" /><path
               style="fill:#6f0579;fill-rule:nonzero"
               inkscape:connector-curvature="0"
               class="fil13"
               d="m 1116,1632 c 0,0 0,0 0,0 0,0 0,0 0,0 z"
               id="path6223" /><path
               style="fill:#6f0579;fill-rule:nonzero"
               inkscape:connector-curvature="0"
               class="fil13"
               d="m 828,1799 c 1,0 2,0 3,0 0,0 0,0 1,0 6,1 12,5 15,11 0,0 0,1 1,1 1,2 2,4 2,7 l 0,0 c 0,2 0,5 0,7 0,1 0,1 0,2 -1,4 -4,8 -7,11 l 0,0 c 1,0 2,0 4,0 8,-1 14,-6 17,-12 0,-1 1,-2 1,-3 1,-2 1,-4 1,-6 0,-1 0,-3 0,-4 0,-1 0,-2 -1,-2 -1,-5 -4,-10 -9,-13 -2,-1 -4,-2 -6,-3 -2,-1 -4,-1 -6,-1 -2,0 -3,0 -5,0 0,0 -1,0 -1,0 0,0 0,0 0,0 -1,0 -2,0 -3,1 0,0 0,0 -1,0 -1,0 -2,1 -3,1 0,0 -1,0 -1,1 0,0 0,0 0,0 0,0 0,0 0,0 -1,1 -2,1 -3,2 z"
               id="path6225" /><path
               style="fill:#2a8b23;fill-rule:nonzero"
               inkscape:connector-curvature="0"
               class="fil11"
               d="m 1344,1406 c 3,-4 5,-7 7,-9 1,-1 1,-1 1,-1 0,0 0,0 0,0 0,0 0,0 0,0 0,0 0,1 0,1 1,1 1,3 1,4 7,31 -1,47 -29,48 l 0,0 0,0 c -1,-13 11,-32 20,-43 z m 15,32 c 2,-5 4,-11 3,-18 0,-7 -1,-15 -4,-23 -1,-2 -2,-4 -3,-6 0,0 -2,1 -5,2 -4,2 -9,5 -13,6 -2,1 -4,2 -5,2 -3,2 -6,4 -8,6 -4,3 -7,6 -10,10 -4,6 -7,12 -8,19 0,3 -1,6 -1,9 0,5 4,17 4,16 17,4 40,-4 49,-23 z"
               id="path6227" /><path
               style="fill:#2a8b23;fill-rule:nonzero"
               inkscape:connector-curvature="0"
               class="fil11"
               d="m 1344,1406 c 3,-4 5,-7 7,-9 1,-1 1,-1 1,-1 0,0 0,0 0,0 0,0 0,0 0,0 0,0 0,1 0,1 1,1 1,3 1,4 7,31 -1,47 -29,48 l 0,0 0,0 c -1,-13 11,-32 20,-43 z m 15,32 c 2,-5 4,-11 3,-18 0,-7 -1,-15 -4,-23 -1,-2 -2,-4 -3,-6 0,0 -2,1 -5,2 -4,2 -9,5 -13,6 -2,1 -4,2 -5,2 -3,2 -6,4 -8,6 -4,3 -7,6 -10,10 -4,6 -7,12 -8,19 0,3 -1,6 -1,9 0,5 4,17 4,16 17,4 40,-4 49,-23 z"
               id="path6229" /><path
               style="fill:#b18050;fill-rule:nonzero"
               inkscape:connector-curvature="0"
               class="fil14"
               d="m 1351,1396 c 0,0 0,0 0,0 0,0 0,0 0,0 0,0 0,0 0,0 0,0 0,0 0,0 l 0,0 z"
               id="path6231" /><path
               style="fill:#b18050;fill-rule:nonzero"
               inkscape:connector-curvature="0"
               class="fil14"
               d="m 1352,1396 c 0,0 0,0 0,0 0,0 0,0 0,0 l 0,0 z"
               id="path6233" /><path
               style="fill:#b18050;fill-rule:nonzero"
               inkscape:connector-curvature="0"
               class="fil14"
               d="m 1352,1396 c 0,0 0,0 0,0 0,0 0,0 0,0 z"
               id="path6235" /><path
               style="fill:#b3ba06;fill-rule:nonzero"
               inkscape:connector-curvature="0"
               class="fil10"
               d="m 1353,1401 c 0,-1 -1,-3 -1,-4 0,0 0,-1 0,-1 l 0,0 c 0,0 0,0 0,0 0,0 0,0 0,0 0,0 0,0 0,0 0,0 -1,1 -1,1 -1,2 -4,5 -7,9 -8,11 -20,30 -20,43 l 0,0 0,0 c 28,-1 36,-18 29,-48 z"
               id="path6237" /><path
               style="fill:#fefefe;fill-rule:nonzero"
               inkscape:connector-curvature="0"
               class="fil1"
               d="m 739,1927 c 1,1 1,1 1,2 0,2 1,4 1,6 7,2 14,3 21,4 11,-9 21,-19 32,-30 0,-7 0,-14 -1,-21 -1,-5 -1,-10 -2,-14 -19,19 -37,34 -57,47 3,2 4,4 5,4 z"
               id="path6239" /><path
               style="fill:#3bb7e4;fill-rule:nonzero"
               inkscape:connector-curvature="0"
               class="fil15"
               d="m 762,1939 c 9,2 18,3 27,4 0,0 0,0 0,0 2,-2 4,-13 4,-26 0,-2 0,-5 0,-7 -11,11 -21,21 -32,30 z"
               id="path6241" /><path
               style="fill:#3bb7e4;fill-rule:nonzero"
               inkscape:connector-curvature="0"
               class="fil15"
               d="m 791,1875 c 0,-2 -1,-4 -1,-6 -2,-9 -5,-15 -7,-18 -24,22 -49,40 -74,55 12,6 21,12 25,16 19,-13 38,-29 57,-47 z"
               id="path6243" /><path
               style="fill:#fefefe;fill-rule:nonzero"
               inkscape:connector-curvature="0"
               class="fil1"
               d="m 635,1930 c -23,-14 -46,-32 -68,-55 -1,4 -1,9 -2,14 -1,7 -1,14 -1,21 11,11 21,21 32,30 3,2 5,4 8,7 9,7 18,13 26,19 3,-9 6,-18 8,-28 0,-2 1,-3 1,-5 -1,-1 -3,-2 -4,-3 z"
               id="path6245" /><path
               style="fill:#fefefe;fill-rule:nonzero"
               inkscape:connector-curvature="0"
               class="fil1"
               d="m 927,1988 c 0,-1 0,-3 1,-4 4,-3 11,-11 19,-20 -57,12 -120,21 -185,12 -4,-1 -7,-1 -11,-2 -5,-1 -9,-2 -13,-3 -1,5 -2,10 -3,14 -1,4 -2,8 -3,11 -1,4 -2,7 -3,10 75,18 151,9 221,-6 -23,-12 -23,-12 -23,-14 z"
               id="path6247" /><path
               style="fill:#3bb7e4;fill-rule:nonzero"
               inkscape:connector-curvature="0"
               class="fil15"
               d="m 729,2008 c -3,9 -7,17 -11,22 31,8 63,13 97,13 50,0 103,-9 160,-27 -6,-3 -14,-7 -22,-11 -2,-1 -3,-2 -5,-2 -70,14 -146,24 -221,6 z"
               id="path6249" /><path
               style="fill:#3bb7e4;fill-rule:nonzero"
               inkscape:connector-curvature="0"
               class="fil15"
               d="m 604,1946 c -3,-2 -6,-4 -8,-7 -11,-9 -21,-19 -32,-30 0,2 0,5 0,7 0,14 2,24 4,26 0,0 0,0 0,0 3,2 5,5 8,7 9,9 19,17 29,24 5,4 11,8 16,11 2,-5 5,-10 7,-16 1,-2 1,-3 2,-5 -9,-6 -17,-12 -26,-19 z"
               id="path6251" /><path
               style="fill:#3bb7e4;fill-rule:nonzero"
               inkscape:connector-curvature="0"
               class="fil15"
               d="m 575,1851 c -2,3 -4,8 -7,18 0,2 -1,4 -1,6 22,22 45,40 68,55 1,1 3,2 4,3 0,-2 1,-3 1,-5 2,-10 4,-18 5,-24 -24,-14 -47,-32 -71,-53 z"
               id="path6253" /><path
               style="fill:#3bb7e4;fill-rule:nonzero"
               inkscape:connector-curvature="0"
               class="fil15"
               d="m 971,1934 c -47,9 -96,19 -147,19 -11,0 -21,-1 -32,-1 -3,0 -7,-1 -11,-1 -9,-1 -19,-3 -28,-4 -4,-1 -9,-2 -13,-3 0,4 0,8 0,13 0,5 -1,11 -2,16 4,1 9,2 13,3 l 11,2 c 65,9 128,0 185,-12 1,-1 2,-3 4,-4 8,-10 17,-20 22,-27 l -3,1 z"
               id="path6255" /><path
               style="fill:#fefefe;fill-rule:nonzero"
               inkscape:connector-curvature="0"
               class="fil1"
               d="m 681,1914 c 0,2 -1,5 -1,7 0,0 0,1 0,1 -2,10 -4,19 -7,28 0,2 -1,4 -1,5 -2,8 -5,16 -8,24 -1,1 -1,3 -2,4 -2,5 -4,9 -5,13 12,6 23,10 33,13 2,-3 3,-7 5,-12 2,-5 4,-11 5,-17 0,0 0,-1 0,-1 1,-5 3,-11 4,-17 1,-8 3,-16 3,-24 0,-2 0,-3 0,-5 0,-3 0,-5 0,-8 0,-3 0,-6 0,-10 -3,-2 -6,-3 -9,-5 -3,-1 -6,-3 -10,-4 -3,-1 -5,-2 -8,-3 0,2 0,5 -1,7 0,1 0,2 0,2 z"
               id="path6257" /><path
               style="fill:#d9dada;fill-rule:nonzero"
               inkscape:connector-curvature="0"
               class="fil16"
               d="m 684,2023 c 1,-1 1,-3 2,-4 1,-2 2,-4 3,-7 0,-1 1,-2 1,-3 -10,-3 -21,-7 -33,-13 0,1 -1,2 -1,3 -1,2 -2,4 -2,5 -1,3 -2,5 -3,7 0,1 -1,1 -1,2 5,2 11,5 17,7 4,2 8,3 11,4 1,0 2,1 3,1 0,0 0,0 0,0 0,-1 1,-2 2,-3 z"
               id="path6259" /><path
               style="fill:#47c0e7;fill-rule:nonzero"
               inkscape:connector-curvature="0"
               class="fil8"
               d="m 657,1997 c 2,-4 3,-8 5,-13 0,-1 1,-3 2,-4 3,-7 5,-15 8,-24 0,-2 1,-3 1,-5 3,-9 5,-19 7,-28 0,0 0,-1 0,-1 0,-2 1,-5 1,-7 0,-1 0,-2 0,-2 0,-2 1,-5 1,-7 -1,0 -2,-1 -2,-1 -8,-2 -16,-5 -25,-6 0,1 0,2 -1,3 0,0 0,0 0,0 0,3 -1,5 -2,8 -1,6 -2,11 -3,17 -1,3 -1,6 -2,9 0,1 0,2 -1,2 -2,10 -5,21 -9,31 0,1 0,1 -1,2 -1,4 -3,8 -4,11 8,6 16,12 25,16 z"
               id="path6261" /><path
               style="fill:#3fa5c5;fill-rule:nonzero"
               inkscape:connector-curvature="0"
               class="fil17"
               d="m 654,2005 c 1,-2 1,-3 2,-5 0,-1 1,-2 1,-3 -8,-4 -17,-9 -25,-16 -1,2 -1,3 -2,5 -1,2 -2,3 -2,5 -1,3 -3,5 -4,7 0,0 0,1 -1,1 0,0 0,0 0,0 0,0 -1,1 -1,1 0,0 1,0 1,1 1,0 1,1 2,1 l 0,0 c 1,0 2,1 2,1 0,0 1,0 1,0 1,0 1,1 2,1 1,1 2,1 3,2 3,2 7,4 11,5 2,1 3,2 5,2 0,0 1,-1 1,-2 1,-2 2,-4 3,-7 z"
               id="path6263" /><path
               style="fill:#47c0e7;fill-rule:nonzero"
               inkscape:connector-curvature="0"
               class="fil8"
               d="m 708,1934 c 0,2 0,3 0,5 -1,9 -2,17 -3,24 -1,6 -3,12 -4,17 0,0 0,1 0,1 -2,6 -4,12 -5,17 -2,4 -3,8 -5,12 16,4 27,6 27,6 1,-3 3,-6 4,-9 0,-1 0,-1 1,-2 1,-4 2,-8 4,-12 2,-7 4,-15 5,-22 0,-3 1,-6 1,-8 1,-7 1,-14 1,-21 0,-3 0,-6 -1,-9 0,0 0,-1 0,-1 -1,-1 -2,-2 -5,-4 -3,-2 -7,-5 -13,-9 -2,-1 -3,-2 -5,-3 0,3 0,6 0,10 0,3 0,6 -1,8 z"
               id="path6265" /><path
               style="fill:#3fa5c5;fill-rule:nonzero"
               inkscape:connector-curvature="0"
               class="fil17"
               d="m 690,2009 c 0,1 -1,2 -1,3 -1,3 -2,5 -3,7 -1,1 -1,3 -2,4 -1,1 -1,2 -2,3 0,0 0,0 0,0 2,1 4,2 6,2 3,1 5,2 7,2 5,1 8,2 11,2 l 0,0 c 2,-1 4,-3 5,-5 2,-3 5,-8 7,-13 -1,0 -12,-2 -28,-6 z"
               id="path6267" /><path
               style="fill:#009846;fill-rule:nonzero"
               inkscape:connector-curvature="0"
               class="fil9"
               d="m 637,1969 c -1,4 -2,7 -4,10 0,0 0,1 -1,1 2,-4 3,-7 4,-11 z"
               id="path6269" /><path
               style="fill:#009846;fill-rule:nonzero"
               inkscape:connector-curvature="0"
               class="fil9"
               d="m 628,2003 c 0,0 -1,0 -1,0 0,0 0,0 1,0 z"
               id="path6271" /><path
               style="fill:#009846;fill-rule:nonzero"
               inkscape:connector-curvature="0"
               class="fil9"
               d="m 634,2006 c -1,-1 -2,-1 -4,-2 1,1 2,1 4,2 z"
               id="path6273" /><path
               style="fill:#009846;fill-rule:nonzero"
               inkscape:connector-curvature="0"
               class="fil9"
               d="m 623,1998 c 0,0 0,0 0,0 0,0 0,-1 1,-1 0,0 0,0 -1,1 z"
               id="path6275" /><path
               style="fill:#009846;fill-rule:nonzero"
               inkscape:connector-curvature="0"
               class="fil9"
               d="m 633,1981 c -1,2 -1,3 -2,5 1,-2 1,-3 2,-5 z"
               id="path6277" /><path
               style="fill:#009846;fill-rule:nonzero"
               inkscape:connector-curvature="0"
               class="fil9"
               d="m 623,2000 0,0 c 0,0 -1,0 -1,-1 0,0 1,0 1,1 z"
               id="path6279" /><polygon
               style="fill:#009846;fill-rule:nonzero"
               class="fil9"
               points="625,2002 625,2002 "
               id="polygon6281" /><path
               style="fill:#fefefe;fill-rule:nonzero"
               inkscape:connector-curvature="0"
               class="fil1"
               d="m 574,1979 c -5,0 -9,1 -14,1 -52,3 -104,-5 -150,-15 8,9 15,17 19,20 1,1 2,2 1,4 0,3 0,3 -23,14 49,10 101,18 153,15 13,-1 27,-2 40,-4 -10,-10 -19,-23 -26,-35 z"
               id="path6283" /><path
               style="fill:#3bb7e4;fill-rule:nonzero"
               inkscape:connector-curvature="0"
               class="fil15"
               d="m 601,2014 c -13,2 -27,4 -40,4 -52,2 -104,-5 -153,-15 -2,1 -3,2 -5,2 -7,4 -16,8 -22,11 57,18 111,27 160,27 27,0 53,-3 78,-8 3,-1 7,-1 10,-2 -10,-4 -20,-11 -29,-19 z"
               id="path6285" /><path
               style="fill:#3bb7e4;fill-rule:nonzero"
               inkscape:connector-curvature="0"
               class="fil15"
               d="m 562,1952 c 0,0 -1,0 -1,0 -9,1 -18,1 -26,1 -51,0 -100,-10 -147,-19 l -3,-1 c 6,7 14,17 22,27 1,1 2,3 4,4 47,10 98,18 150,15 5,0 9,-1 14,-1 -6,-10 -10,-19 -13,-27 z"
               id="path6287" /><path
               style="fill:#d9dada;fill-rule:nonzero"
               inkscape:connector-curvature="0"
               class="fil16"
               d="m 601,2014 c 7,-1 15,-3 22,-4 -5,-3 -8,-6 -9,-8 -1,-2 -1,-4 1,-6 1,-1 2,-2 2,-3 -8,-5 -15,-11 -22,-16 -7,1 -14,2 -21,2 7,12 16,25 26,35 z"
               id="path6289" /><path
               style="fill:#369dc3;fill-rule:nonzero"
               inkscape:connector-curvature="0"
               class="fil18"
               d="m 630,2033 c 9,-2 18,-5 26,-8 -13,-5 -25,-11 -33,-16 -7,2 -15,3 -22,4 9,9 19,16 29,19 z"
               id="path6291" /><path
               style="fill:#369dc3;fill-rule:nonzero"
               inkscape:connector-curvature="0"
               class="fil18"
               d="m 595,1977 c -10,-8 -20,-16 -29,-25 -1,0 -3,0 -4,0 3,8 7,17 13,27 7,-1 14,-1 21,-2 z"
               id="path6293" /><path
               style="fill:#9d9e9e;fill-rule:nonzero"
               inkscape:connector-curvature="0"
               class="fil19"
               d="m 739,1492 c 0,0 -60,158 41,156 -29,36 -124,1 -41,-156 z m 22,204 c 1,-2 9,-11 15,-19 2,-3 4,-5 6,-8 2,-15 3,-33 2,-53 -1,-68 -18,-107 -29,-133 -1,0 -1,0 -2,0 l -26,1 -61,3 c 11,27 42,116 13,247 22,2 44,5 60,5 0,0 0,0 0,-1 3,-18 13,-33 21,-43 z"
               id="path6295" /><path
               style="fill:#2a8b23;fill-rule:nonzero"
               inkscape:connector-curvature="0"
               class="fil11"
               d="m 800,1936 c 15,-1 32,-8 50,-23 0,0 -1,0 -1,-1 -2,-1 -4,-2 -6,-4 -16,10 -30,15 -42,17 0,4 -1,7 -1,10 z"
               id="path6297" /><path
               style="fill:#2a8b23;fill-rule:nonzero"
               inkscape:connector-curvature="0"
               class="fil11"
               d="m 801,1892 c 13,3 26,7 34,11 -8,-7 -14,-15 -19,-24 -2,-3 -3,-5 -4,-8 -1,1 -3,1 -4,2 -3,1 -6,2 -9,3 1,4 1,8 2,13 0,1 0,2 0,3 z"
               id="path6299" /><path
               style="fill:#2a8b23;fill-rule:nonzero"
               inkscape:connector-curvature="0"
               class="fil11"
               d="m 799,1860 c 7,-3 18,-11 20,-14 0,0 1,-1 1,-1 2,-2 3,-4 4,-5 -1,-1 -1,-1 -2,-2 -1,-1 -2,-2 -3,-3 -2,3 -4,5 -6,7 -3,2 -6,4 -10,5 -2,1 -3,1 -5,2 -3,1 -5,1 -9,1 2,3 3,7 5,12 1,0 2,-1 3,-1 z"
               id="path6301" /><path
               style="fill:#2a8b23;fill-rule:nonzero"
               inkscape:connector-curvature="0"
               class="fil11"
               d="m 781,1842 c 1,-1 2,-1 3,-1 1,0 2,0 2,1 0,0 1,0 1,1 2,-8 6,-18 11,-27 5,-9 12,-18 16,-23 1,-1 2,-2 3,-3 0,0 1,-1 1,-2 1,-1 1,-1 1,-2 1,-1 2,-2 2,-2 0,0 0,1 0,1 0,1 0,2 1,3 1,3 1,5 2,8 1,-1 3,-2 4,-3 0,0 1,-1 2,-1 0,0 0,0 1,0 0,0 0,-1 0,-1 0,-1 -1,-2 -1,-2 -1,-3 -2,-6 -4,-9 0,0 -4,2 -9,4 -2,1 -4,2 -5,2 -2,1 -4,2 -6,3 -4,2 -6,3 -7,3 -3,2 -6,4 -9,6 l 0,0 c -1,0 -2,1 -3,2 -2,2 -4,3 -6,5 0,0 0,0 0,0 -2,2 -4,4 -5,6 -1,1 -1,2 -2,3 -2,3 -4,7 -5,11 0,0 0,0 0,0 0,0 0,0 0,1 0,0 0,1 0,1 -2,6 -3,11 -3,17 0,1 0,3 0,4 0,3 1,5 1,8 0,0 0,1 0,1 5,-4 10,-9 15,-13 0,0 0,0 1,0 z"
               id="path6303" /><path
               style="fill:#b3ba06;fill-rule:nonzero"
               inkscape:connector-curvature="0"
               class="fil10"
               d="m 801,1926 c 12,-2 26,-8 42,-17 -2,-2 -4,-3 -6,-5 0,0 -1,-1 -1,-2 -9,-3 -21,-7 -34,-11 1,10 1,23 0,34 z"
               id="path6305" /><path
               style="fill:#6d5809;fill-rule:nonzero"
               inkscape:connector-curvature="0"
               class="fil6"
               d="m 300,1852 0,0 5,7 252,45 c 0,-2 0,-4 0,-6 l -257,-46 z"
               id="path6307" /><path
               style="fill:#6d5809;fill-rule:nonzero"
               inkscape:connector-curvature="0"
               class="fil6"
               d="m 540,1865 -366,-93 4,7 381,96 c 0,-2 1,-3 1,-5 l -20,-5 z"
               id="path6309" /><polygon
               style="fill:#6d5809;fill-rule:nonzero"
               class="fil6"
               points="126,1658 130,1666 456,1810 514,1830 127,1658 "
               id="polygon6311" /><path
               style="fill:#6d5809;fill-rule:nonzero"
               inkscape:connector-curvature="0"
               class="fil6"
               d="m 480,1830 -393,-138 -1,0 4,7 428,149 9,2 35,9 c 0,0 0,0 0,-1 l -83,-29 z"
               id="path6313" /><polygon
               style="fill:#6d5809;fill-rule:nonzero"
               class="fil6"
               points="58,1373 59,1378 403,1683 430,1702 63,1372 "
               id="polygon6315" /><path
               style="fill:#6d5809;fill-rule:nonzero"
               inkscape:connector-curvature="0"
               class="fil6"
               d="m 488,1760 24,16 35,23 0,0 36,24 41,27 47,31 1,1 10,7 7,5 c -3,-3 -5,-6 -7,-9 l -20,-14 -100,-68 -39,-26 -33,-22 -26,-17 -51,-35 -349,-236 -2,0 2,7 375,252 50,34 z"
               id="path6317" /><path
               style="fill:#6d5809;fill-rule:nonzero"
               inkscape:connector-curvature="0"
               class="fil6"
               d="m 665,1889 -1,0 -9,-6 -7,-5 -1,-1 -5,-3 -65,-37 -37,-21 -419,-235 3,9 435,243 14,8 4,2 3,2 19,10 20,11 20,12 7,4 1,1 5,3 1,1 5,3 0,0 c 3,1 6,1 10,2 l -4,-2 z"
               id="path6319" /><path
               style="fill:#b6a883;fill-rule:nonzero"
               inkscape:connector-curvature="0"
               class="fil7"
               d="m 133,1656 -2,1 -4,1 387,172 53,19 c 0,0 0,0 0,-1 L 132,1656 Z"
               id="path6321" /><path
               style="fill:#b6a883;fill-rule:nonzero"
               inkscape:connector-curvature="0"
               class="fil7"
               d="m 522,1839 -99,-35 -329,-115 -2,1 -4,2 393,138 83,29 c 1,-2 1,-3 2,-5 l -43,-15 z"
               id="path6323" /><path
               style="fill:#b6a883;fill-rule:nonzero"
               inkscape:connector-curvature="0"
               class="fil7"
               d="m 558,1864 -72,-18 -307,-78 -2,1 -2,1 0,0 0,1 0,0 0,0 0,0 366,93 20,5 c 0,-2 1,-4 1,-5 l -3,-1 z"
               id="path6325" /><path
               style="fill:#b6a883;fill-rule:nonzero"
               inkscape:connector-curvature="0"
               class="fil7"
               d="m 306,1848 -2,1 -4,2 0,0 0,0 0,0 257,46 c 0,-2 0,-3 0,-5 l -251,-44 z"
               id="path6327" /><polygon
               style="fill:#b6a883;fill-rule:nonzero"
               class="fil7"
               points="66,1372 63,1373 430,1702 460,1722 460,1722 459,1721 68,1372 "
               id="polygon6329" /><polygon
               style="fill:#b6a883;fill-rule:nonzero"
               class="fil7"
               points="576,1830 576,1830 567,1824 552,1816 519,1798 126,1580 124,1580 120,1581 120,1581 540,1816 577,1837 642,1874 580,1832 580,1832 579,1831 "
               id="polygon6331" /><path
               style="fill:#b6a883;fill-rule:nonzero"
               inkscape:connector-curvature="0"
               class="fil7"
               d="m 674,1873 -145,-98 -39,-26 -1,-1 -31,-21 -26,-18 -5,-4 -45,-30 -313,-211 -2,0 -4,1 349,236 7,5 44,30 26,17 72,49 100,68 20,13 c -3,-4 -5,-8 -7,-12 z"
               id="path6333" /><path
               style="fill:#f02137;fill-rule:nonzero"
               inkscape:connector-curvature="0"
               class="fil20"
               d="m 668,454 c 32,5 59,14 76,23 5,-1 4,-20 -5,-26 -40,-30 -93,-32 -93,-32 0,0 16,-7 67,8 34,10 38,7 32,0 -15,-21 -17,2 -47,-15 22,4 43,-5 44,-16 1,-8 -16,-11 -39,-10 13,-2 40,-7 42,-18 7,-41 -34,-63 -53,-66 -34,-6 -63,14 -62,29 2,16 52,20 52,20 -87,14 -102,100 -102,100 l 0,0 c 18,-5 50,-5 87,1 z"
               id="path6335" /><path
               style="fill:#781a1a;fill-rule:nonzero"
               inkscape:connector-curvature="0"
               class="fil21"
               d="m 580,464 c -2,10 31,23 74,32 l 0,-39 c -41,-5 -73,-2 -74,7 z"
               id="path6337" /><path
               style="fill:#781a1a;fill-rule:nonzero"
               inkscape:connector-curvature="0"
               class="fil21"
               d="m 687,501 0,0 c 36,3 63,0 64,-8 2,-9 -26,-21 -64,-29 l 0,38 z"
               id="path6339" /><polygon
               style="fill:#6d5809;fill-rule:nonzero"
               class="fil6"
               points="679,462 676,461 676,462 676,502 676,503 676,537 679,537 679,503 679,502 679,462 "
               id="polygon6341" /><path
               style="fill:#6d5809;fill-rule:nonzero"
               inkscape:connector-curvature="0"
               class="fil6"
               d="m 669,537 0,-35 0,-1 0,-41 0,0 -7,-1 0,0 0,4 0,34 0,1 0,39 c 2,0 4,0 7,0 z"
               id="path6343" /><path
               style="fill:#b6a883;fill-rule:nonzero"
               inkscape:connector-curvature="0"
               class="fil7"
               d="m 669,501 0,1 0,35 c 2,0 5,0 7,0 l 0,-35 0,-1 0,-40 0,0 -7,-1 0,0 0,41 z"
               id="path6345" /><polygon
               style="fill:#95c12b;fill-rule:nonzero"
               class="fil22"
               points="662,497 662,498 "
               id="polygon6347" /><path
               style="fill:#b3ba06;fill-rule:nonzero"
               inkscape:connector-curvature="0"
               class="fil10"
               d="m 799,1848 c 2,0 4,-1 5,-2 4,-1 7,-3 10,-5 2,-2 4,-4 6,-7 -3,-3 -4,-7 -5,-11 -1,-3 -1,-5 -1,-8 0,-5 2,-9 4,-13 0,-1 1,-1 2,-2 1,-2 2,-3 4,-5 0,-2 -1,-5 -2,-8 0,-1 0,-2 -1,-3 0,0 0,-1 0,-1 0,0 -1,1 -2,2 0,0 -1,1 -1,2 0,0 -1,1 -1,2 -1,1 -2,2 -3,3 -5,6 -11,14 -16,23 -5,9 -10,19 -11,27 1,1 2,3 4,6 3,0 6,-1 9,-1 z"
               id="path6349" /><path
               style="fill:#e08600;fill-rule:nonzero"
               inkscape:connector-curvature="0"
               class="fil2"
               d="m 452,1694 c 0,-7 -14,-14 -35,-17 l 29,24 c 4,-2 6,-4 6,-7 z"
               id="path6351" /><path
               style="fill:#e08600;fill-rule:nonzero"
               inkscape:connector-curvature="0"
               class="fil2"
               d="m 349,1689 c 0,8 20,16 46,18 l -40,-25 c -4,2 -6,5 -6,7 z"
               id="path6353" /><path
               style="fill:#0069ac;fill-rule:nonzero"
               inkscape:connector-curvature="0"
               class="fil23"
               d="m 1119,1428 c -8,8 -17,-8 -68,-15 0,10 0,25 -2,26 -31,-3 -179,-14 -183,-16 -1,-7 -1,-13 -1,-17 -49,-1 -85,0 -99,7 -7,4 -11,6 -13,4 -5,-8 5,-22 14,-26 7,-3 16,-5 24,-5 -9,-1 -17,-4 -24,-9 -9,-6 -19,-30 -14,-44 2,-5 6,0 13,6 14,11 50,13 99,12 0,-5 0,-17 1,-28 4,-4 152,-22 183,-27 2,3 2,28 2,45 50,-12 60,-40 68,-26 29,51 -24,69 -31,71 7,1 61,11 31,42 z m 64,-169 -500,0 c 0,0 0,0 0,1 6,20 9,41 9,61 2,22 2,46 1,73 48,3 67,57 68,76 0,2 0,4 0,6 l 1,1 c 19,29 39,68 40,136 0,16 -1,31 -2,45 0,2 0,4 -1,6 4,0 6,2 6,2 0,0 0,0 1,1 15,13 25,25 31,37 8,-10 17,-18 25,-23 2,-1 4,-3 22,-16 18,-13 28,-22 35,-11 7,11 26,55 25,75 l 1,0 c 0,-7 1,-13 3,-20 4,-13 12,-24 19,-31 1,-1 7,-7 13,-13 13,-13 17,-16 21,-11 5,5 1,1 1,1 1,-4 2,-10 2,-15 1,-4 1,-8 2,-11 1,-5 2,-10 8,-10 l 1,0 c 22,4 37,12 46,21 2,-9 7,-17 10,-23 1,-1 6,-8 9,-14 9,-13 10,-15 13,-15 3,0 5,1 5,1 1,0 1,1 1,1 2,-3 4,-5 7,-7 10,-7 23,-6 33,1 0,-2 0,-4 0,-6 0,-2 0,-3 0,-5 1,-11 5,-22 14,-36 1,-1 6,-9 11,-16 12,-17 13,-18 16,-17 1,0 3,1 4,2 0,-77 0,-164 -1,-250 z"
               id="path6355" /><path
               style="fill:#0069ac;fill-rule:nonzero"
               inkscape:connector-curvature="0"
               class="fil23"
               d="m 201,1340 c 2,-27 5,-54 10,-81 l -36,0 0,201 31,28 c -6,-45 -9,-95 -5,-148 z"
               id="path6357" /><path
               style="fill:#0069ac;fill-rule:nonzero"
               inkscape:connector-curvature="0"
               class="fil23"
               d="m 220,1552 c -2,-8 -4,-17 -6,-26 l -38,-34 0,38 39,26 8,6 1,1 c 0,0 0,-1 0,-1 -1,-3 -2,-6 -3,-9 z"
               id="path6359" /><path
               style="fill:#00619f;fill-rule:nonzero"
               inkscape:connector-curvature="0"
               class="fil24"
               d="m 794,1387 c -1,0 -1,0 -2,0 -9,1 -17,2 -24,5 -9,4 -19,18 -14,26 2,3 6,0 13,-4 14,-7 50,-8 99,-7 0,3 0,10 1,17 4,2 151,13 183,16 2,-2 2,-16 2,-26 50,7 60,23 68,15 29,-30 -24,-40 -31,-42 -1,0 -1,0 -1,0 0,0 -244,4 -293,0 z"
               id="path6361" /><path
               style="fill:#2b2a29;fill-rule:nonzero"
               inkscape:connector-curvature="0"
               class="fil0"
               d="m 515,657 c 1,1 3,2 5,2 5,-1 11,-5 11,-30 0,-12 -1,-20 -5,-23 -1,-1 -3,-2 -4,-2 0,0 -1,0 -1,0 -7,1 -10,10 -11,29 0,13 1,21 5,24 z m 6,-64 c 6,-1 10,1 14,4 6,6 8,16 8,31 0,25 -8,38 -22,40 -1,0 -2,0 -3,0 -5,0 -10,-2 -13,-7 -4,-7 -6,-16 -6,-29 0,-25 8,-38 22,-40 z"
               id="path6363" /><polygon
               style="fill:#2b2a29;fill-rule:nonzero"
               class="fil0"
               points="475,601 475,675 487,672 487,599 "
               id="polygon6365" /><path
               style="fill:#2b2a29;fill-rule:nonzero"
               inkscape:connector-curvature="0"
               class="fil0"
               d="m 629,625 c 0,12 -3,19 -5,22 -2,3 -6,5 -10,5 l -3,0 -1,-52 4,0 c 6,0 10,2 12,8 1,3 3,8 3,18 z m 2,-31 c -4,-4 -9,-5 -18,-5 l -15,0 0,73 15,0 c 3,0 12,0 18,-7 6,-6 10,-18 10,-31 0,-13 -4,-25 -10,-30 z"
               id="path6367" /><polygon
               style="fill:#2b2a29;fill-rule:nonzero"
               class="fil0"
               points="649,589 650,662 686,663 686,652 661,652 661,629 680,630 679,619 661,619 661,600 685,600 685,589 "
               id="polygon6369" /></g></g></g></g></g></svg>